<svg width="240" height="110" fill="none" xmlns="http://www.w3.org/2000/svg"><g clip-path="url(#a)"><path d="M208.924 69.52c0-5.444-4.406-9.86-9.836-9.86h-.032c.112-.337.176-.706.176-1.091a3.443 3.443 0 0 0-3.444-3.453c-.417 0-.801.08-1.17.21-.72-4.947-4.982-8.752-10.124-8.752a10.182 10.182 0 0 0-8.698 4.865 7.26 7.26 0 0 0-.833-.048 6.397 6.397 0 0 0-6.36 5.717 11.513 11.513 0 0 0-4.646-.964c-6.408 0-11.582 5.203-11.582 11.61 0 6.406 5.19 11.609 11.582 11.609.144 0 .273 0 .417-.016.176 0 .336.016.528.016h34.538c5.271-.177 9.484-4.528 9.484-9.843Z" fill="url(#b)" fill-opacity=".6"/><path d="M30.754 26.084c0-5.977 4.838-10.826 10.801-10.826h.035a3.807 3.807 0 0 1-.193-1.2 3.78 3.78 0 0 1 3.782-3.79c.457 0 .88.088 1.284.229.792-5.431 5.471-9.61 11.118-9.61 4.046 0 7.582 2.134 9.552 5.343.299-.036.616-.053.915-.053a7.025 7.025 0 0 1 6.983 6.277 12.642 12.642 0 0 1 5.102-1.058c7.036 0 12.718 5.713 12.718 12.748 0 7.036-5.7 12.749-12.718 12.749-.158 0-.3 0-.458-.018-.193 0-.369.018-.58.018H41.168c-5.787-.194-10.414-4.973-10.414-10.809Z" fill="url(#c)" fill-opacity=".6"/><path d="M92.46 48.269c4.576 3.586 8.904 4.606 11.81 3.462.649-.247 3.803-1.113 4.545-5.38.463-2.689-.34-4.636-.928-5.285l-2.627-2.01a.56.56 0 0 1-.062-.711.494.494 0 0 1 .68-.124l.989.495s.433.216.711.03c.371-.277.155-.741.155-.741l-1.082-3.092a.48.48 0 0 1 .309-.649c.247-.093.494.062.587.278l1.206 2.505-.835-3.401c-.062-.31.124-.557.371-.587.278-.062.526.092.649.432l1.052 3.246-.371-3.184c0-.247.216-.433.463-.433.248 0 .464.186.464.433l.804 3.339-.124-2.133c.031-.248.186-.433.433-.433 0 0 .34 0 .464.433.247.927.402 2.72.773 3.71.123.37 1.02 2.844 1.267 6.183.371 5.41-2.288 10.418-6.554 12.582-4.421 2.226-10.387 1.978-14.252-.495-2.782-1.793-3.988-2.69-5.503-4.915l4.607-3.555Z" fill="#FFC398"/><path d="M92.028 46.383c1.546 1.762 3.895 4.08 6.028 4.699l-3.122 6.678c-3.524-1.175-7.11-4.7-8.718-7.142l5.812-4.235Z" fill="#DFE9F8"/><path d="M150.886 33.932c-6.441 2.9-9.982 2.563-12.613-1.248-1.079-1.551-2.293-4.013-.607-8.431 1.079-2.8 2.934-4.148 3.845-4.418l3.575-.405c.269-.067.472-.337.438-.607a.556.556 0 0 0-.573-.506l-1.214-.101s-.54-.034-.675-.371c-.202-.472.27-.776.27-.776l2.732-2.26a.554.554 0 0 0 .101-.775c-.169-.202-.472-.236-.708-.067l-2.53 1.686 2.732-2.698c.236-.27.202-.607 0-.776-.236-.202-.54-.236-.843.034l-2.833 2.428 2.158-2.765c.135-.236.034-.54-.202-.675a.568.568 0 0 0-.708.135L140.6 14l1.315-1.922c.102-.236.068-.506-.135-.64 0 0-.337-.203-.708.134-.775.742-1.888 2.327-2.799 3.035-.337.27-3.71 2.9-5.801 5.869-3.406 4.822-3.676 10.488-1.18 15.041.236.439.539.91.843 1.35 2.968 4.316 7.487 7.014 12.478 6.88 3.609-.102 6.847-1.35 9.545-2.564l-3.272-7.25Z" fill="#EBA87C"/><path d="M151.224 33.528c-2.091 1.483-5.194 2.226-7.521 2.226l-1.079 8.06c3.912.978 10.556-1.214 13.456-2.53l-4.856-7.756Z" fill="#fff"/><path d="M125.187 53.358a.844.844 0 1 0 0-1.687.844.844 0 0 0 0 1.687ZM131.273 58.556l-1.694 1.694 1.694 1.693 1.693-1.694-1.693-1.693ZM71.201 6.143l-1.764 1.764L71.2 9.672l1.765-1.765-1.764-1.764ZM140.87 6.58a1.08 1.08 0 1 0 0-2.158 1.08 1.08 0 0 0 0 2.158ZM155.264 6.671l-1.622 1.622 1.622 1.622 1.621-1.622-1.621-1.622Z" fill="#2CD4D9"/><path d="M82.052 4.152s16.593-1.281 31.095 6.172c10.388 5.329 26.947 7.487 35.21 4.216l-6.948 35.176s-18.178 3.541-37.671-4.924c-16.627-7.218-28.7-6.981-28.7-6.981l7.014-33.659Z" fill="url(#d)"/><path d="M135.575 46.411a4.059 4.059 0 0 1 4.047-4.047h.169l4.148-20.067a4.095 4.095 0 0 1-3.17-3.44c-8.297.81-21.619-2.36-29.241-6.273-8.498-4.384-17.84-5.295-23.034-5.43a4.059 4.059 0 0 1-4.047 4.047c-.27 0-.54-.033-.81-.067l-4.35 20.033a4.059 4.059 0 0 1 4.047 4.047c0 .135 0 .27-.034.405 4.418.573 11.568 2.023 20.033 5.7 4.62 1.99 9.241 3.81 13.693 4.721 7.858 1.619 14.873 1.653 18.684 1.484-.101-.337-.135-.742-.135-1.113Z" fill="#DFE9F8"/><path d="M88.595 29.042c-.304-.371-.169-.675.169-1.012l1.281-1.383c.337-.337.54-.337.843 0 .675.844 1.417 1.653 2.665 2.26l1.045-4.08c-1.922-1.788-4.25-3.846-3.507-6.746.64-2.428 2.866-4.08 6.172-3.541l.202-.776a.462.462 0 0 1 .573-.337l.472.135a.473.473 0 0 1 .338.573l-.203.81c2.159.775 3.541 2.293 4.081 2.967.236.236.101.675-.067.81l-1.855 1.585c-.27.202-.54.169-.709-.034-.573-.708-1.079-1.349-2.293-2.158l-.944 3.575c1.82 1.753 4.553 3.743 3.676 7.048-.64 2.496-3.17 4.216-6.476 3.676l-.64 2.53c-.068.236-.338.37-.574.303l-.472-.135a.473.473 0 0 1-.337-.573l.64-2.53c-2.326-.809-3.675-2.394-4.08-2.967Zm7.858-11.5c-.81-.102-1.551.303-1.72.91-.236.877.067 1.416.91 2.26l.81-3.17Zm.135 10.623c.202-.742-.067-1.585-.776-2.395l-.91 3.542c.775.033 1.484-.371 1.686-1.147Z" fill="url(#e)"/><path d="m108.729 32.516 4.351 1.146c.27.068.438.337.371.607l-.574 2.226a.502.502 0 0 1-.607.371l-10.05-2.597c-.27-.067-.405-.337-.337-.607l.034-.202c.067-.236.067-.304.505-.641 2.159-1.72 6.678-5.396 8.634-7.15.439-.438.945-1.045 1.113-1.72.236-.978-.337-2.023-1.72-2.394-1.012-.27-1.956.168-2.765.64-.236.135-.574.068-.709-.168l-1.146-1.956c-.135-.203-.068-.506.135-.675 1.214-.776 3.17-1.787 5.666-1.146 3.574.944 5.092 3.777 4.384 6.542-.337 1.35-.911 1.99-1.821 3.002-1.147 1.214-3.879 3.339-5.498 4.688l.034.034Z" fill="url(#f)"/><path d="M117.903 29.21c1.416-5.497 4.586-8.16 8.667-7.115 4.081 1.045 5.599 4.924 4.148 10.455-1.416 5.497-4.62 8.161-8.701 7.116-4.081-1.08-5.531-4.958-4.114-10.455Zm9.004 2.328c.844-3.305.27-5.497-1.247-5.902-1.518-.405-3.069 1.248-3.946 4.553-.844 3.305-.304 5.53 1.214 5.902 1.551.404 3.136-1.214 3.979-4.553Z" fill="url(#g)"/><path d="m164.107 51.112-13.221 1.112c.034.034.102 1.215-.168 3.373-.54 4.08-8.6 8.803-9.511 18.65-1.686 18.55 18.381 29.173 18.381 29.173l6.205-12.984s-12.445-7.218-9.375-17.605c1.349-4.62 9.004-5.396 10.825-9.915 2.058-5.262-3.136-11.804-3.136-11.804Z" fill="url(#h)"/><path d="M159.554 103.454s-1.214-3.238 1.079-7.757c2.361-4.654 5.093-5.194 5.093-5.194s1.214 3.541-1.046 8.027c-2.327 4.688-5.126 4.924-5.126 4.924Z" fill="#7795B2"/><path d="M166.67 102.105c1.248.81 1.248 2.293 1.248 2.293l-.034 4.79c0 .134.068.236.169.337.236.202.607.067.675-.236l2.428-12.142a.993.993 0 0 0-.405-.978l-.27-.168-3.811 6.104Z" fill="#DFE9F8"/><path d="M162.421 92.932a16.633 16.633 0 0 0-1.788 2.731c-.708 1.383-1.079 2.631-1.248 3.71l7.285 2.732 3.811-6.138-8.06-3.035Z" fill="#EBA87C"/><path d="M149.099 34.924s-.742-6.577 5.936-6.273l15.952 2.327s8.297 1.787 2.26 9.308c0 0-3.811 5.598-5.835 10.59l-16.525 1.383-1.788-17.335Z" fill="#fff"/><path d="m167.412 50.842-13.693 1.214c.102 0 1.383 3.778.304 6.138-1.99 4.216-8.6 10.287-7.622 18.01 2.158 17.065 23.574 16.39 23.574 16.39l2.159-14.232s-9.949.27-11.838-3.372c-1.147-2.159 1.282-3.778 4.688-7.487 1.652-1.788 3.474-4.25 3.71-9.106.135-3.036-1.282-7.555-1.282-7.555Z" fill="#85A2BD"/><path d="M169.942 92.595s-2.125-2.766-1.215-7.757c.911-5.16 3.373-6.475 3.373-6.475s2.192 3.035 1.349 7.993c-.877 5.193-3.507 6.239-3.507 6.239Z" fill="#7795B2"/><path d="M176.349 89.222c1.417.438 1.889 1.821 1.889 1.821l1.349 4.587a.386.386 0 0 0 .236.27c.304.1.607-.135.574-.439l-1.215-12.343a.936.936 0 0 0-.674-.81l-.304-.101-1.855 7.015Z" fill="#DFE9F8"/><path d="M169.638 81.701a16.941 16.941 0 0 0-.911 3.137c-.269 1.517-.269 2.833-.134 3.912l7.757.472 1.854-6.981-8.566-.54ZM159.655 31.855l.169-4.452 5.767-.101-.068 3.608c.169 1.08-.607 2.293-1.888 2.9-1.518.743-3.238.405-3.811-.741-.203-.371-.236-.776-.169-1.215Z" fill="#EBA87C"/><path d="m165.523 29.089.034-1.35-5.767.338-.067 1.855c0-.034 3.069 1.518 5.8-.843Z" fill="#E08C5C"/><path d="M166.367 28.684a1.045 1.045 0 1 0 0-2.09 1.045 1.045 0 0 0 0 2.09Z" fill="#EBA87C"/><path d="M162.994 29.392a4.553 4.553 0 1 0 0-9.105 4.553 4.553 0 0 0 0 9.105Z" fill="#EBA87C"/><path d="M165.46 20.176c1.374.507 2.938-.3 3.492-1.803.554-1.502-.112-3.131-1.486-3.639-1.375-.507-2.938.3-3.492 1.803-.554 1.502.111 3.132 1.486 3.639Z" fill="#0C022F"/><path d="M168.557 25.596c.602-1.921.679-3.897.216-5.531-.463-1.634-1.433-2.805-2.714-3.278-1.281-.472-2.778-.211-4.191.73-1.413.943-2.637 2.495-3.426 4.348l10.115 3.73Z" fill="#0C022F"/><path d="M168.896 32.293c-4.384 5.53-9.645 5.328-13.76 3.136-1.686-.877-3.912-2.495-4.418-7.217-.337-2.968.708-5.025 1.383-5.666l3.001-1.99c.236-.168.27-.506.135-.742-.168-.236-.472-.337-.742-.202l-1.113.472s-.506.203-.775-.034c-.371-.303-.102-.809-.102-.809l1.383-3.271a.577.577 0 0 0-.27-.742.482.482 0 0 0-.64.27l-1.484 2.63 1.18-3.642c.067-.338-.101-.607-.371-.675-.304-.067-.607.068-.742.405l-1.383 3.474.641-3.44c0-.27-.202-.506-.472-.506a.492.492 0 0 0-.54.438l-1.113 3.575.304-2.327a.484.484 0 0 0-.439-.506s-.371-.034-.539.439c-.337 1.011-.607 2.934-1.079 3.98-.169.404-1.956 4.282-2.429 7.891-.809 5.834 1.552 10.995 5.869 13.895.438.303.877.54 1.349.81 9.173 5.058 19.696-.844 21.517-3.137l-4.351-6.51Z" fill="#EBA87C"/><path d="M168.694 31.483c-1.181 2.293-5.127 3.744-7.319 4.182l1.99 8.533c3.946-.945 8.971-3.676 10.961-6.206l-5.632-6.509Z" fill="#fff"/><path d="M84.701 67.467s13.603 3.37 15.736 13.386c2.751 13.015-10.728 23.99-10.728 23.99l-9.923-9.553s10.418-5.194 9.46-11.5c-1.206-7.853-12.83-6.709-16.849-10.728-.742-.742-3.772-5.039 3.864-11.345l8.44 5.75Z" fill="url(#i)"/><path d="M89.71 104.812s-.619-3.308-3.958-6.554c-3.431-3.339-5.966-2.998-5.966-2.998s-.031 3.431 3.277 6.677c3.431 3.37 6.646 2.875 6.646 2.875Z" fill="#7795B2"/><path d="M82.135 105.925c-.803.649-.649 1.793-.649 1.793l.278 1.422c.031.124 0 .247-.093.34-.185.217-.525.155-.649-.093l-3.926-7.048c-.154-.309-.062-.711.186-.959l.216-.216 4.637 4.761Z" fill="#DFE9F8"/><path d="M84.145 96.898c.649.526 1.484 1.144 2.257 2.04.896 1.051 1.607 1.948 2.04 2.875l-6.338 4.143-4.606-4.792 6.647-4.266Z" fill="#FFC398"/><path d="M92.152 51.237s2.07-5.689-3.957-6.864L76.169 42.18a6.949 6.949 0 0 0-3.185.154c-2.133.65-4.76 2.597-3.555 8.502 0 0-.433 8.81-.124 13.973l14.314.866 8.533-14.437Z" fill="#DFE9F8"/><path d="m85.165 46.723.804-4.019-5.101-1.33-.711 3.216c-.371.927.03 2.164 1.05 2.999 1.206.989 2.783 1.05 3.556.154.247-.278.371-.618.402-1.02Z" fill="#FFC398"/><path d="m80.497 42.982.278-1.205 5.255.68-.494 2.504c-.031 0-3.092.742-5.04-1.979Z" fill="#EBA87C"/><path d="M78.58 40.169a1.731 1.731 0 1 0 0-3.462 1.731 1.731 0 0 0 0 3.462ZM83.897 36.614a1.731 1.731 0 1 0 0-3.463 1.731 1.731 0 0 0 0 3.463Z" fill="#724C3B"/><path d="M80.157 43.199a.958.958 0 1 0 0-1.917.958.958 0 0 0 0 1.917Z" fill="#FFC398"/><path d="M83.434 43.94a4.173 4.173 0 1 0 0-8.346 4.173 4.173 0 0 0 0 8.346ZM57.527 25.206c-.278.279-3.06 3.06-4.637 5.967-2.566 4.76-2.226 9.954.556 13.819.278.37.217.34.557.71 3.184 3.587 7.914 5.287 12.458 4.607 3.277-.494 5.72-1.67 8.038-3.06l-2.473-4.39c-6.183 1.422-10.14 1.545-12.953-1.639-1.144-1.298-2.535-3.4-1.453-7.605.68-2.659 2.226-4.08 3.03-4.42l.834-.186c.711-.155 1.36-.557 1.855-1.113l.865-1.02c.248-.31.186-.588 0-.742-.278-.217-.618-.031-.741.247l-.619 1.082h-.34s-.494.031-.649-.278c-.216-.402.186-.742.186-.742" fill="#FFC398"/><path d="M64.297 25.454c.217-.804-.587-1.36-1.05-1.515l-2.567-.835c-.927-.185-1.762.773-2.257 1.206l-.927.927 4.42 2.844 2.381-2.627Z" fill="#FFC398"/><path d="m64.297 25.454-.804 2.133c-.185.34-.618.494-.989.34l-.093-.031a.81.81 0 0 1-.463-.866l.247-2.04 2.102.464Z" fill="url(#j)"/><path d="m63.493 25.02-.958 2.505c-.185.34-.618.494-.99.34l-.092-.031a.81.81 0 0 1-.464-.866l.248-2.04 2.256.092Z" fill="url(#k)"/><path d="m62.442 24.526-.989 2.566a.68.68 0 0 1-.897.34l-.278-.093c-.309-.123-.494-.433-.34-.896l.433-2.072 2.071.155Z" fill="url(#l)"/><path d="m58.609 26.072.587-.124.124-1.793 1.824.093-.866 2.38a.909.909 0 0 1-.68.279h-.896c-.186 0-.371-.124-.402-.31-.093-.216.062-.463.309-.525Z" fill="url(#m)"/><path d="M72.892 42.364c-2.844 1.02-6.029 1.422-8.44 1.144l-.216 7.389c4.482.494 9.49-1.02 11.995-2.535l-3.34-5.998Z" fill="#DFE9F8"/><path d="M87.112 37.48a4.323 4.323 0 0 0-5.688-1.485 4.348 4.348 0 0 0-1.917 5.565l7.605-4.08Z" fill="#724C3B"/><path d="m69.398 61.995 8.44-.402c-.03.031 18.364-1.978 22.908 8.502 6.492 14.994-19.29 23.897-19.29 23.897L76.26 81.688s6.616-1.051 10.079-3.648c2.627-1.948 2.256-4.885-.186-4.977-5.503-.217-11.5 2.473-15.705-1.33-4.266-3.864-1.05-9.738-1.05-9.738Z" fill="url(#n)"/><path d="M81.455 93.992s1.268-2.968-.618-7.234c-1.948-4.39-4.606-5.07-4.606-5.07s-1.299 3.184.556 7.388c1.948 4.483 4.668 4.916 4.668 4.916Z" fill="#7795B2"/><path d="M73.077 91.272c-1.175.68-1.267 2.04-1.267 2.04l-.217 1.422c0 .124-.062.216-.154.31-.248.154-.557.03-.588-.248l-1.638-8.285a.83.83 0 0 1 .433-.866l.247-.154 3.184 5.78Z" fill="#DFE9F8"/><path d="M78.178 82.925c1.608 1.298 3.03 4.451 3.308 5.75l-8.44 2.597-3.153-5.812 8.285-2.535Z" fill="#FFC398"/><path d="M134.057 43.645a.709.709 0 1 0 0-1.418.709.709 0 0 0 0 1.418Z" fill="#2CD4D9"/></g><defs><linearGradient id="b" x1="178.688" y1="77.963" x2="185.266" y2="46.586" gradientUnits="userSpaceOnUse"><stop offset=".183" stop-color="#fff" stop-opacity=".28"/><stop offset=".425" stop-color="#F6F9FD" stop-opacity=".5"/><stop offset=".813" stop-color="#DFE9F6" stop-opacity=".6"/><stop offset="1" stop-color="#D1DFF2" stop-opacity=".4"/></linearGradient><linearGradient id="c" x1="63.957" y1="35.356" x2="56.733" y2=".9" gradientUnits="userSpaceOnUse"><stop offset=".183" stop-color="#fff" stop-opacity=".28"/><stop offset=".425" stop-color="#F6F9FD" stop-opacity=".5"/><stop offset=".813" stop-color="#DFE9F6" stop-opacity=".6"/><stop offset="1" stop-color="#D1DFF2" stop-opacity=".4"/></linearGradient><linearGradient id="d" x1="75.038" y1="27.265" x2="148.366" y2="27.265" gradientUnits="userSpaceOnUse"><stop stop-color="#7795B2"/><stop offset="1" stop-color="#C2D3EB"/></linearGradient><linearGradient id="e" x1="88.419" y1="24.308" x2="102.821" y2="24.308" gradientUnits="userSpaceOnUse"><stop stop-color="#7795B2"/><stop offset="1" stop-color="#C2D3EB"/></linearGradient><linearGradient id="f" x1="101.857" y1="27.443" x2="116.207" y2="27.443" gradientUnits="userSpaceOnUse"><stop stop-color="#7795B2"/><stop offset="1" stop-color="#C2D3EB"/></linearGradient><linearGradient id="g" x1="117.368" y1="30.872" x2="131.268" y2="30.872" gradientUnits="userSpaceOnUse"><stop stop-color="#7795B2"/><stop offset="1" stop-color="#C2D3EB"/></linearGradient><linearGradient id="h" x1="165.359" y1="74.542" x2="136.373" y2="83.98" gradientUnits="userSpaceOnUse"><stop stop-color="#7795B2"/><stop offset="1" stop-color="#A7BDD6"/></linearGradient><linearGradient id="i" x1="90.178" y1="86.758" x2="98.382" y2="93.99" gradientUnits="userSpaceOnUse"><stop stop-color="#7795B2"/><stop offset="1" stop-color="#A7BDD6"/></linearGradient><linearGradient id="j" x1="63.29" y1="26.299" x2="61.931" y2="26.704" gradientUnits="userSpaceOnUse"><stop stop-color="#FFC398"/><stop offset=".399" stop-color="#F6B78B"/><stop offset="1" stop-color="#EBA87C"/></linearGradient><linearGradient id="k" x1="62.451" y1="26.189" x2="60.976" y2="26.629" gradientUnits="userSpaceOnUse"><stop stop-color="#FFC398"/><stop offset=".399" stop-color="#F6B78B"/><stop offset="1" stop-color="#EBA87C"/></linearGradient><linearGradient id="l" x1="61.206" y1="25.947" x2="59.912" y2="25.922" gradientUnits="userSpaceOnUse"><stop stop-color="#FFC398"/><stop offset=".399" stop-color="#F6B78B"/><stop offset="1" stop-color="#EBA87C"/></linearGradient><linearGradient id="m" x1="60.083" y1="25.171" x2="58.206" y2="26.05" gradientUnits="userSpaceOnUse"><stop stop-color="#FFC398"/><stop offset=".399" stop-color="#F6B78B"/><stop offset="1" stop-color="#EBA87C"/></linearGradient><linearGradient id="n" x1="66.678" y1="84.875" x2="93.23" y2="66.901" gradientUnits="userSpaceOnUse"><stop stop-color="#7795B2"/><stop offset=".874" stop-color="#B0C4DD"/><stop offset="1" stop-color="#B9CCE4"/></linearGradient><clipPath id="a"><path fill="#fff" d="M0 0h240v110H0z"/></clipPath></defs></svg>