<svg width="240" height="110" fill="none" xmlns="http://www.w3.org/2000/svg"><g clip-path="url(#a)"><path d="M153.878 73.798s-5.471 4.363-14.732 4.363-14.302-2.754-14.302-2.754l4.255-8.224 22.24-2.324 2.539 8.94Z" fill="#88A5BF"/><path d="m133.175 88.78 3.432-18.45c2.003-.894 14.267-3.218 16.913-2.968l-3.719 17.664c.108 3.397 4.363 3.969 4.363 3.969l.965.357c.286.072.536.286.679.572.286.68-.25 1.43-1.001 1.395h-19.272c-.93-.107-2.36-.393-2.36-2.539Z" fill="url(#b)"/><path d="m155.129 89.317-.965-.358s-4.649-1.895-4.291-4.326l.107-.465-16.626 3.79-.179.822c0 2.146 1.43 2.432 2.36 2.503h19.272c.751.036 1.287-.715 1.001-1.394-.143-.286-.357-.5-.679-.572Z" fill="url(#c)"/><path d="M96.99 43.084s-3.361 7.33-3.361 13.408c0 6.33 3.003 11.013 6.757 13.445 8.01 5.149 24.887-2.575 31.466-5.042 8.331-3.146 25.494-10.905 27.175-15.16 5.578-14.16-4.291-19.416-4.291-19.416-10.048-4.148-16.448 2.467-24.708 5.328l-17.484 7.473H96.99v-.036Z" fill="url(#d)"/><path d="M124.844 75.408s5.721-3.183 12.908-4.363c8.51-1.43 16.126 2.754 16.126 2.754l6.793-30.036c1.681-7.616-4.112-14.838-11.942-14.838-5.578 0-10.441 3.79-11.836 9.189.036.036-5.47 19.273-12.049 37.294Z" fill="url(#e)"/><path d="M171.684 35.074s-5.899 13.552-17.77 16.806c-4.971 1.358-11.442 1.358-16.055-2.325-14.374-11.513-1.824-32.395-1.824-32.395l13.731 5.936s-5.721 6.078-5.507 11.156c.072 2.002.68 3.826 2.575 5.363C153.592 45.086 166.5 32 166.5 32l5.184 3.075Z" fill="url(#f)"/><path d="M116.477 43.12c3.003-1.43 6.758-8.046 22.776-12.694 6.043-1.752 11.371-5.113 11.371-11.37 0-6.294-5.113-11.37-11.371-11.37h-28.926c-3.254 0-8.296 1.322-13.051 6.757-2.253 2.574-10.87 13.194-18.236 28.676h37.437Z" fill="#7795B2"/><path d="M126.918 9.58c-3.862 0-7.009 3.147-7.009 7.008 0 3.862 3.147 7.009 7.009 7.009h11.37V9.58h-11.37Z" fill="url(#g)"/><path d="M145.654 6.755c.393-3.075-2.003-5.006-2.003-5.006s.859.859 1.288 2.217a5.166 5.166 0 0 0-1.252-1.573c-2.002-1.645-5.006-1.359-6.65.644-1.645 2.002-1.359 5.005.643 6.65 2.003 1.645 5.078 1.502 6.794-.429a4.494 4.494 0 0 0 1.18-2.503Z" fill="#5B3427"/><path d="M127.847 19.449a1.967 1.967 0 1 0 0-3.934 1.967 1.967 0 0 0 0 3.934Z" fill="#FFC398"/><path d="M135.964 24.74a8.581 8.581 0 0 0 0-17.162 8.582 8.582 0 1 0 0 17.163Z" fill="#FFC398"/><path d="M137.466 15.551h-10.405c.321-4.612 4.183-8.26 8.903-8.26 4.72 0 8.581 3.648 8.903 8.26h-3.003c.5-2.61-.286-4.898-2.181-6.257 0 0 1.537 2.717-.358 6.257 0 0 1.216-3.647-.286-6.078 0 0 1.073 3.933-1.573 6.078Z" fill="#5B3427"/><path d="m155.952 26.707 23.813-.071.465 1.108-23.671.072-11.549 13.372-.465-1.144 11.407-13.337Z" fill="#7795B2"/><path opacity=".5" d="m155.952 26.707 23.813-.071.465 1.108-23.671.072-11.549 13.372-.465-1.144 11.407-13.337Z" fill="url(#h)"/><path d="m156.56 27.816 23.67-.072-11.478 13.373-23.742.072 11.55-13.373Z" fill="url(#i)"/><path d="m175.582 29.282 1.072.536.537 1.61-.751.857.751.322c1.144.465 2.181-.143 2.217-1.18 0 0-.036-.644-.43-1.216l-.786-1.215c-.179-.322-.501-.537-.823-.68l-.929-.322c-.537-.178-1.073-.178-1.287.287-.179.393.107.786.429 1Z" fill="url(#j)"/><path d="m173.794 30.283 2.324 2.252-.751.859.823.357c1.144.465 2.181-.143 2.216-1.18 0 0 0-.858-.893-1.501l-2.682-1.896c-.429-.321-.858-.286-1.144.036-.251.286-.286.715.107 1.073Z" fill="url(#k)"/><path d="m172.221 32.07 2.36 2.29-.751.857.751.322c1.144.465 2.181-.143 2.217-1.18 0 0 0-.858-.894-1.502l-2.682-1.895c-.429-.322-.858-.286-1.144.036-.215.286-.251.715.143 1.073Z" fill="url(#l)"/><path d="m171.363 33.394 2.181 2.181-3.504 4.04 2.789-1.18c1.752-.715 2.824-1.93 2.86-2.896 0 0 0-.786-.858-1.43l-2.503-1.752c-.429-.322-.787-.286-1.073.036-.25.286-.286.643.108 1.001Z" fill="url(#m)"/><path d="M79.076 43.084s-3.361 7.33-3.361 13.408c0 6.33 3.003 11.013 6.758 13.445 8.009 5.149 22.097 3.182 30.571-7.151 7.008-8.546 12.3-11.12 17.163-20.203 7.187-13.444-6.329-18.95-6.329-18.95-10.047-4.148-16.948.393-21.239 6.9l-8.01 12.587H79.077v-.036Z" fill="url(#n)"/><path d="M102.21 67.147c-9.332-3.861-15.125-1.716-15.125-1.716s1.001 5.113 12.122 9.476c11.12 4.362 14.624 1.072 14.624 1.072s-2.038-4.863-11.621-8.832Z" fill="#88A5BF"/><path d="M108.396 89.03c-.965-.429-1.359-1.573-.858-2.538l8.474-16.055c-2.11-3.325-4.755-6.257-13.802-9.69l-11.406 21.99c-.215.394-.286.859-.25 1.323a2.4 2.4 0 0 0 1.501 1.931l13.445 4.934c.679.25 1.359.358 2.074.358h.536c.822.036 1.394-.894 1.073-1.645-.179-.286-.465-.536-.787-.608Z" fill="url(#o)"/><path d="M108.396 89.03c-.965-.429-1.359-1.573-.858-2.538l.572-1.073-17.199-2.896-.107.214c-.215.394-.286.858-.25 1.323a2.4 2.4 0 0 0 1.501 1.931l13.445 4.934c.679.25 1.359.358 2.074.358h.536c.822.036 1.394-.894 1.073-1.645-.179-.286-.465-.536-.787-.608Z" fill="url(#p)"/><path d="M111.507 31.892s-7.652 6.436-12.014 15.697C95.13 56.85 87.05 65.467 87.05 65.467s5.792-2.145 15.124 1.716c9.547 3.97 11.621 8.868 11.621 8.868l16.377-33.504-18.665-10.655Z" fill="#DFE9F8"/><path d="M77.896 22.989s-.966 1.68 0 2.681c.965 1.002 10.047 9.798 10.047 9.798l3.719-6.687-11.693-7.759-2.073 1.967Z" fill="#C2D3EB"/><path d="M122.734 45.837c-3.004-.143-5.614 1.43-8.546 4.148-5.113 4.72-17.199 10.298-27.532 3.54-5.757-3.755-8.474-10.584-8.76-16.055-.537-11.048 7.401-21.775 19.701-25.065l4.219 13.015s-5.542 3.433-8.045 7.724a6.87 6.87 0 0 0-1.287 3.253c-.393 3.683 2.253 6.973 5.936 7.402 4.433.5 9.368-3.79 11.585-5.578 3.933-3.11 7.866-5.614 13.158-3.719.036 0 5.041 11.55-.429 11.335Z" fill="url(#q)"/><path d="m121.768 34.11 6.794 1.394c.608.107 1.001.715.894 1.323a1.127 1.127 0 0 1-1.18.93l-6.543-.287v-3.36h.035Z" fill="url(#r)"/><path d="M93.771 33.537 81.292 22.632a2.354 2.354 0 0 0-3.432.393C82.58 15.516 92.27 7.72 110.29 7.72l-1.895 14.303c.035 0-11.37 5.399-14.625 11.513Z" fill="#7795B2"/><path d="M128.241 34.61v1.609h-.716a3.075 3.075 0 1 0 0 6.15h1.967a5.915 5.915 0 0 0 4.684 2.288 5.981 5.981 0 0 0 5.971-5.97V34.61h-11.906Zm-.573 6.543a1.847 1.847 0 0 1-1.859-1.86c0-1.036.823-1.858 1.859-1.858h.573v1.287c0 .894.178 1.716.536 2.467h-1.109v-.036Z" fill="#fff"/><path d="m123.199 34.503 4.362 1.966c.608.358.858 1.145.537 1.788l-.072.179c-.286.572-.93.894-1.573.75l-3.218-.929v-3.754h-.036Z" fill="url(#s)"/><path d="m123.092 36.755 4.398 2.396c.607.358.858 1.144.536 1.788l-.072.179a1.416 1.416 0 0 1-1.573.75l-3.433-.965.144-4.148Z" fill="url(#t)"/><path d="m122.913 39.938 4.147 2.216c.644.322.894 1.109.608 1.788l-.214.536c-.25.608-.894.894-1.788.608l-3.039-1.144.286-4.005Z" fill="url(#u)"/><path d="m126.238 47.697-.429-.93-3.647-1.108.608-2.932 3.861 1.859c.394.214.644.608.751 1.037l.322 1.537c.072.322-.071.68-.393.823-.394.25-.894.107-1.073-.286Z" fill="#FFC398"/><path opacity=".5" d="M140.112 34.681c-.751-2.753-1.967-3.575-4.577-5.077-2.575-1.466-4.005-4.363-5.042-7.616-1.323-4.148-4.004-6.472-8.546-7.652-4.541-1.18-5.434-2.968-7.616-7.008-2.181-4.04-6.543-5.614-10.869-6.723 3.79 2.36 6.579 4.72 6.65 9.833.036 4.22 1.752 8.582 5.9 10.298 4.362 1.824 6.365 4.148 7.509 7.652 1.072 3.254 1.609 5.292 4.898 6.15 3.326.858 8.117-.536 11.693.143Z" fill="url(#v)"/><path d="M131.566 4.36c-1.645-2.61-4.72-2.575-4.72-2.575s1.216.143 2.396.894a4.525 4.525 0 0 0-1.967-.429c-2.61 0-4.72 2.11-4.72 4.72s2.11 4.72 4.72 4.72 4.863-2.038 4.97-4.648c.072-1.037-.25-1.967-.679-2.682Z" fill="#5B3427"/><path d="M156.095 91.283H50.375v9.94h105.72v-9.94Z" fill="url(#w)"/><path d="M162.316 93.321H81.615v5.9h80.701v-5.9Z" fill="url(#x)"/><path d="M85.619 93.321h72.621l-2.146-2.038h-68.33l-2.145 2.038Z" fill="url(#y)"/><path d="M158.24 99.22H85.619l2.145 2.039h68.33l2.146-2.038Z" fill="url(#z)"/><path d="M87.192 98.005a1.752 1.752 0 1 0 0-3.504 1.752 1.752 0 0 0 0 3.504ZM95.524 98.005a1.752 1.752 0 1 0 0-3.504 1.752 1.752 0 0 0 0 3.504ZM104.248 98.005a1.752 1.752 0 1 0 0-3.503 1.752 1.752 0 0 0 0 3.503ZM113.008 98.005a1.752 1.752 0 1 0 0-3.503 1.752 1.752 0 0 0 0 3.503ZM147.227 98.005a1.752 1.752 0 1 0 0-3.503 1.752 1.752 0 0 0 0 3.503ZM156.488 98.005a1.752 1.752 0 1 0 0-3.503 1.752 1.752 0 0 0 0 3.503ZM81.614 94.537h-2.646v3.468h2.646v-3.468ZM164.998 94.537h-2.646v3.468h2.646v-3.468Z" fill="#7795B2"/><path d="M137.058 108.017h-87.92c-.193 0-.32-.143-.32-.358 0-.214.127-.358.32-.358h87.792l10.111-11.299a.288.288 0 0 1 .448 0 .374.374 0 0 1 0 .501l-10.207 11.406c-.064.072-.128.108-.224.108Z" fill="url(#A)"/><path d="M104.303 96.61a.26.26 0 0 1-.239-.142l-3.777-5.292h-51.17c-.18 0-.3-.144-.3-.358 0-.215.12-.358.3-.358h51.29a.26.26 0 0 1 .239.144l3.867 5.434c.12.143.09.394-.03.501-.06.072-.12.072-.18.072Z" fill="url(#B)"/><path d="M95.594 96.61h-46.49c-.172 0-.287-.143-.287-.357 0-.215.115-.358.287-.358h46.49c.172 0 .287.143.287.358 0 .214-.115.357-.287.357Z" fill="url(#C)"/><path d="M148.979 104.477H63.772c-.214 0-.357-.143-.357-.358 0-.214.143-.357.357-.357h85.064l7.402-7.724a.345.345 0 0 1 .5 0 .346.346 0 0 1 0 .501l-7.509 7.831a.325.325 0 0 1-.25.107Z" fill="url(#D)"/><path d="M106.886 104.477H47.033c-.188 0-.313-.143-.313-.358 0-.214.125-.357.313-.357h59.696l6.07-7.724a.305.305 0 0 1 .438-.035c.125.107.125.357.031.5l-6.132 7.867a.333.333 0 0 1-.25.107Z" fill="url(#E)"/><path d="M58.445 93.357a.43.43 0 1 0 0-.858.43.43 0 0 0 0 .858ZM74.356 93.965a.43.43 0 1 0 0-.859.43.43 0 0 0 0 .859ZM68.17 91.64a.822.822 0 1 0 0-1.644.822.822 0 0 0 0 1.645ZM80.297 83.522l-1.694 1.694 1.694 1.694 1.694-1.694-1.694-1.694ZM64.347 98.193l-1.012 1.011 1.012 1.012 1.01-1.012-1.01-1.011Z" fill="#2CD4D9"/></g><defs><linearGradient id="b" x1="133.186" y1="79.31" x2="155.879" y2="79.31" gradientUnits="userSpaceOnUse"><stop stop-color="#EBA87C"/><stop offset="1" stop-color="#E08C5C"/></linearGradient><linearGradient id="c" x1="133.186" y1="87.728" x2="155.879" y2="87.728" gradientUnits="userSpaceOnUse"><stop stop-color="#DFE9F8"/><stop offset=".686" stop-color="#C2D3EB"/><stop offset="1" stop-color="#9CB5CE"/></linearGradient><linearGradient id="d" x1="127.464" y1="51.09" x2="129.903" y2="68.322" gradientUnits="userSpaceOnUse"><stop offset=".517" stop-color="#C2D3EB"/><stop offset="1" stop-color="#9CB5CE"/></linearGradient><linearGradient id="e" x1="154.733" y1="55.378" x2="130.006" y2="50.803" gradientUnits="userSpaceOnUse"><stop stop-color="#DFE9F8"/><stop offset=".686" stop-color="#C2D3EB"/><stop offset="1" stop-color="#9CB5CE"/></linearGradient><linearGradient id="f" x1="159.705" y1="46.027" x2="134.869" y2="27.291" gradientUnits="userSpaceOnUse"><stop stop-color="#EBA87C"/><stop offset="1" stop-color="#E08C5C"/></linearGradient><linearGradient id="g" x1="119.92" y1="16.588" x2="138.298" y2="16.588" gradientUnits="userSpaceOnUse"><stop stop-color="#EBA87C"/><stop offset="1" stop-color="#E08C5C"/></linearGradient><linearGradient id="h" x1="144.533" y1="33.914" x2="180.22" y2="33.914" gradientUnits="userSpaceOnUse"><stop stop-color="#88A5BF"/><stop offset=".753" stop-color="#D3E0F3"/><stop offset="1" stop-color="#C2D3EB"/></linearGradient><linearGradient id="i" x1="143.217" y1="44.681" x2="181.97" y2="24.324" gradientUnits="userSpaceOnUse"><stop stop-color="#B1C6DE"/><stop offset=".178" stop-color="#B0C5DD"/><stop offset=".641" stop-color="#D8E4F5"/><stop offset=".824" stop-color="#C2D3EB"/></linearGradient><linearGradient id="j" x1="177.501" y1="28.096" x2="177.091" y2="32.368" gradientUnits="userSpaceOnUse"><stop stop-color="#EBA87C"/><stop offset="1" stop-color="#E08C5C"/></linearGradient><linearGradient id="k" x1="176.224" y1="30.297" x2="175.235" y2="33.958" gradientUnits="userSpaceOnUse"><stop stop-color="#EBA87C"/><stop offset="1" stop-color="#E08C5C"/></linearGradient><linearGradient id="l" x1="174.637" y1="32.208" x2="173.634" y2="35.626" gradientUnits="userSpaceOnUse"><stop stop-color="#EBA87C"/><stop offset="1" stop-color="#E08C5C"/></linearGradient><linearGradient id="m" x1="173.669" y1="33.723" x2="170.139" y2="40.944" gradientUnits="userSpaceOnUse"><stop stop-color="#EBA87C"/><stop offset="1" stop-color="#E08C5C"/></linearGradient><linearGradient id="n" x1="104.32" y1="48.278" x2="107.434" y2="70.279" gradientUnits="userSpaceOnUse"><stop stop-color="#DFE9F8"/><stop offset=".686" stop-color="#C2D3EB"/><stop offset="1" stop-color="#9CB5CE"/></linearGradient><linearGradient id="o" x1="90.525" y1="76.032" x2="116.005" y2="76.032" gradientUnits="userSpaceOnUse"><stop stop-color="#EBA87C"/><stop offset="1" stop-color="#E08C5C"/></linearGradient><linearGradient id="p" x1="90.525" y1="86.918" x2="109.22" y2="86.918" gradientUnits="userSpaceOnUse"><stop stop-color="#DFE9F8"/><stop offset=".686" stop-color="#C2D3EB"/><stop offset="1" stop-color="#9CB5CE"/></linearGradient><linearGradient id="q" x1="119.067" y1="48.438" x2="82.466" y2="27.414" gradientUnits="userSpaceOnUse"><stop stop-color="#FFC398"/><stop offset="1" stop-color="#EBA87C"/></linearGradient><linearGradient id="r" x1="123.821" y1="35.982" x2="128.981" y2="37.844" gradientUnits="userSpaceOnUse"><stop stop-color="#FFC398"/><stop offset="1" stop-color="#EBA87C"/></linearGradient><linearGradient id="s" x1="125.57" y1="37.005" x2="125.218" y2="38.911" gradientUnits="userSpaceOnUse"><stop stop-color="#FFC398"/><stop offset="1" stop-color="#EBA87C"/></linearGradient><linearGradient id="t" x1="125.466" y1="39.445" x2="125.079" y2="41.537" gradientUnits="userSpaceOnUse"><stop stop-color="#FFC398"/><stop offset="1" stop-color="#EBA87C"/></linearGradient><linearGradient id="u" x1="125.289" y1="42.773" x2="125.146" y2="45.352" gradientUnits="userSpaceOnUse"><stop stop-color="#FFC398"/><stop offset="1" stop-color="#EBA87C"/></linearGradient><linearGradient id="v" x1="142.68" y1="32.929" x2="102.258" y2="8.859" gradientUnits="userSpaceOnUse"><stop stop-color="#fff"/><stop offset="1" stop-color="#fff" stop-opacity="0"/></linearGradient><linearGradient id="w" x1="156.1" y1="96.266" x2="50.388" y2="96.266" gradientUnits="userSpaceOnUse"><stop stop-color="#2CD4D9" stop-opacity=".61"/><stop offset=".002" stop-color="#2CD4D9" stop-opacity=".55"/><stop offset=".475" stop-color="#2CD4D9" stop-opacity=".31"/><stop offset=".82" stop-color="#B8C4EB" stop-opacity=".132"/><stop offset="1" stop-color="#C2D3EB" stop-opacity="0"/></linearGradient><linearGradient id="x" x1="81.625" y1="96.268" x2="162.343" y2="96.268" gradientUnits="userSpaceOnUse"><stop stop-color="#DFE9F8"/><stop offset="1" stop-color="#C2D3EB"/></linearGradient><linearGradient id="y" x1="85.624" y1="92.31" x2="158.235" y2="92.31" gradientUnits="userSpaceOnUse"><stop stop-color="#F6F8FD"/><stop offset="1" stop-color="#DFE9F8"/></linearGradient><linearGradient id="z" x1="85.624" y1="100.226" x2="158.235" y2="100.226" gradientUnits="userSpaceOnUse"><stop stop-color="#F6F8FD"/><stop offset="1" stop-color="#DFE9F8"/></linearGradient><linearGradient id="A" x1="147.59" y1="101.972" x2="48.829" y2="101.972" gradientUnits="userSpaceOnUse"><stop stop-color="#2CD4D9" stop-opacity=".61"/><stop offset=".002" stop-color="#2CD4D9" stop-opacity=".55"/><stop offset=".475" stop-color="#2CD4D9" stop-opacity=".31"/><stop offset=".82" stop-color="#B8C4EB" stop-opacity=".132"/><stop offset="1" stop-color="#C2D3EB" stop-opacity="0"/></linearGradient><linearGradient id="B" x1="104.593" y1="93.544" x2="48.824" y2="93.544" gradientUnits="userSpaceOnUse"><stop stop-color="#2CD4D9" stop-opacity=".61"/><stop offset=".002" stop-color="#2CD4D9" stop-opacity=".55"/><stop offset=".475" stop-color="#2CD4D9" stop-opacity=".31"/><stop offset=".82" stop-color="#B8C4EB" stop-opacity=".132"/><stop offset="1" stop-color="#C2D3EB" stop-opacity="0"/></linearGradient><linearGradient id="C" x1="95.884" y1="96.254" x2="48.823" y2="96.254" gradientUnits="userSpaceOnUse"><stop stop-color="#2CD4D9" stop-opacity=".61"/><stop offset=".002" stop-color="#2CD4D9" stop-opacity=".55"/><stop offset=".475" stop-color="#2CD4D9" stop-opacity=".31"/><stop offset=".82" stop-color="#B8C4EB" stop-opacity=".132"/><stop offset="1" stop-color="#C2D3EB" stop-opacity="0"/></linearGradient><linearGradient id="D" x1="156.85" y1="100.215" x2="63.426" y2="100.215" gradientUnits="userSpaceOnUse"><stop stop-color="#2CD4D9" stop-opacity=".61"/><stop offset=".002" stop-color="#2CD4D9" stop-opacity=".55"/><stop offset=".475" stop-color="#2CD4D9" stop-opacity=".31"/><stop offset=".82" stop-color="#B8C4EB" stop-opacity=".132"/><stop offset="1" stop-color="#C2D3EB" stop-opacity="0"/></linearGradient><linearGradient id="E" x1="113.339" y1="100.213" x2="46.728" y2="100.213" gradientUnits="userSpaceOnUse"><stop stop-color="#2CD4D9" stop-opacity=".61"/><stop offset=".002" stop-color="#2CD4D9" stop-opacity=".55"/><stop offset=".475" stop-color="#2CD4D9" stop-opacity=".31"/><stop offset=".82" stop-color="#B8C4EB" stop-opacity=".132"/><stop offset="1" stop-color="#C2D3EB" stop-opacity="0"/></linearGradient><clipPath id="a"><path fill="#fff" d="M0 0h240v110H0z"/></clipPath></defs></svg>