<svg width="410" height="583" viewBox="0 0 410 583" fill="none" xmlns="http://www.w3.org/2000/svg">
<g clip-path="url(#clip0_1168_50677)">
<path d="M357 -36H84V607H357V-36Z" fill="url(#paint0_linear_1168_50677)"/>
<g opacity="0.3">
<path opacity="0.3" d="M225.669 -35.6344L226.894 607H223.999L222.774 -36L225.669 -35.6344Z" fill="url(#paint1_linear_1168_50677)"/>
</g>
<path d="M261.524 601.761L261.413 490.369C261.413 490.369 180.35 336.444 181.464 336.322L182.911 -35.3894H183.913L182.466 336.322L262.304 490.003C262.304 490.125 262.415 490.247 262.415 490.247L262.527 601.517L261.524 601.761Z" fill="#C2D3EB"/>
<g opacity="0.6">
<path opacity="0.6" d="M162.088 -35.5121V600.297L160.752 599.444V-35.5121H162.088Z" fill="url(#paint2_linear_1168_50677)"/>
</g>
<g opacity="0.5">
<path opacity="0.5" d="M288.248 594.57L286.467 -35.3894H287.914L289.696 593.717L288.248 594.57Z" fill="url(#paint3_linear_1168_50677)"/>
</g>
<path d="M314.416 580.555L313.302 581.042V-35.3894H314.416V580.555Z" fill="#C2D3EB"/>
<path d="M127.569 586.28L126.456 585.671V-34.6608H127.569V586.28Z" fill="#C2D3EB"/>
<path d="M288.026 277.457C291.531 277.457 294.373 274.347 294.373 270.51C294.373 266.674 291.531 263.564 288.026 263.564C284.521 263.564 281.679 266.674 281.679 270.51C281.679 274.347 284.521 277.457 288.026 277.457Z" fill="#A7A3F3"/>
<path d="M359 533H86V607H359V533Z" fill="url(#paint4_linear_1168_50677)"/>
<g filter="url(#filter0_ddd_1168_50677)">
<path d="M314 31L314 46" stroke="#2CD4D9" stroke-width="2" stroke-linecap="round"/>
</g>
<g filter="url(#filter1_ddd_1168_50677)">
<path d="M225 201L225 216" stroke="#2CD4D9" stroke-width="2" stroke-linecap="round"/>
</g>
<g filter="url(#filter2_ddd_1168_50677)">
<path d="M288 351L288 366" stroke="#2CD4D9" stroke-width="2" stroke-linecap="round"/>
</g>
<g filter="url(#filter3_ddd_1168_50677)">
<path d="M128 379L128 394" stroke="#2CD4D9" stroke-width="2" stroke-linecap="round"/>
</g>
<g filter="url(#filter4_ddd_1168_50677)">
<path d="M126 136L126 151" stroke="#2CD4D9" stroke-width="2" stroke-linecap="round"/>
</g>
<path d="M212.875 271.801L184.724 278.405C180.257 279.453 175.867 276.659 174.839 272.276L168.236 244.126C167.188 239.659 169.982 235.269 174.365 234.241L202.515 227.638C206.982 226.59 211.372 229.384 212.4 233.766L219.003 261.916C220.135 266.364 217.342 270.754 212.875 271.801Z" fill="url(#paint5_linear_1168_50677)"/>
<path d="M211.517 271.319L183.367 277.922C178.9 278.97 174.51 276.176 173.482 271.794L166.878 243.644C165.83 239.177 168.624 234.787 173.007 233.759L201.157 227.155C205.624 226.107 210.014 228.901 211.042 233.284L217.645 261.434C218.673 265.817 215.984 270.271 211.517 271.319Z" fill="url(#paint6_linear_1168_50677)"/>
<path d="M192.043 251.613C195.767 250.739 198.077 247.012 197.204 243.289C196.33 239.565 192.604 237.254 188.88 238.128C185.156 239.001 182.845 242.728 183.719 246.452C184.592 250.176 188.319 252.486 192.043 251.613Z" fill="url(#paint7_linear_1168_50677)"/>
<path d="M192.043 251.612C184.121 253.47 178.99 261.165 180.219 269.057C180.293 269.752 181.001 270.119 181.591 269.98L209.488 263.436C210.163 263.278 210.53 262.57 210.307 261.999C207.983 254.364 200.05 249.734 192.043 251.612Z" fill="url(#paint8_linear_1168_50677)"/>
<path d="M207.665 393.542H158.877C151.135 393.542 145 387.261 145 379.665V330.877C145 323.135 151.281 317 158.877 317H207.665C215.407 317 221.542 323.281 221.542 330.877V379.665C221.542 387.261 215.261 393.542 207.665 393.542Z" fill="url(#paint9_linear_1168_50677)"/>
<path d="M211.462 393.542H162.674C154.932 393.542 148.797 387.26 148.797 379.665V330.877C148.797 323.135 155.078 317 162.674 317H211.462C219.204 317 225.339 323.281 225.339 330.877V379.665C225.339 387.26 219.058 393.542 211.462 393.542Z" fill="url(#paint10_linear_1168_50677)"/>
<path d="M188.236 378.936C175.82 378.936 165.741 368.857 165.741 356.441C165.741 344.025 175.82 333.946 188.236 333.946C200.652 333.946 210.731 344.025 210.731 356.441C210.731 368.857 200.652 378.936 188.236 378.936ZM188.236 336.721C177.426 336.721 168.662 345.486 168.662 356.295C168.662 367.104 177.426 375.869 188.236 375.869C199.045 375.869 207.809 367.104 207.809 356.295C207.956 345.632 199.045 336.721 188.236 336.721Z" fill="#DFE9F8"/>
<path d="M188.237 333.944V331.461C174.506 331.461 163.258 342.563 163.258 356.44H165.742C165.742 368.856 175.821 378.935 188.237 378.935C200.653 378.935 210.732 368.856 210.732 356.44C210.732 344.023 200.653 333.944 188.237 333.944ZM188.237 376.013C177.427 376.013 168.663 367.249 168.663 356.44H188.237V336.72C199.046 336.72 207.81 345.484 207.81 356.293C207.956 367.249 199.046 376.013 188.237 376.013Z" fill="url(#paint11_linear_1168_50677)"/>
<path d="M369.223 393.55L325.416 408.328C318.818 410.572 311.693 407.009 309.45 400.412L294.672 356.604C292.428 350.007 295.991 342.881 302.588 340.638L346.396 325.86C352.993 323.617 360.119 327.179 362.362 333.777L377.14 377.584C379.383 384.182 375.821 391.307 369.223 393.55Z" fill="url(#paint12_linear_1168_50677)"/>
<path d="M372.521 392.362L328.845 407.14C322.248 409.383 315.123 405.821 312.88 399.223L298.101 355.416C295.858 348.818 299.421 341.693 306.018 339.45L349.825 324.672C356.423 322.428 363.548 325.991 365.791 332.588L380.57 376.396C382.681 383.125 379.118 390.25 372.521 392.362Z" fill="url(#paint13_linear_1168_50677)"/>
<path d="M310.375 361.221L311.826 365.707L321.063 393.02C321.327 393.944 322.382 394.34 323.174 394.076L368.301 378.902C369.224 378.638 369.62 377.582 369.356 376.791L360.12 349.477L358.668 344.991C357.349 341.032 352.995 338.921 349.168 340.241L314.993 351.72C311.166 353.04 309.055 357.262 310.375 361.221ZM315.653 366.235L357.613 352.116L365.794 376.263L323.834 390.381L315.653 366.235Z" fill="url(#paint14_linear_1168_50677)"/>
<path d="M97.1175 313.832L38.8708 293.676C29.6253 290.533 24.8177 280.548 27.9612 271.302L48.1163 212.871C51.2598 203.625 61.2449 198.818 70.4904 201.961L128.922 222.116C138.167 225.26 142.975 235.245 139.832 244.49L119.676 302.922C116.348 312.167 106.363 316.975 97.1175 313.832Z" fill="url(#paint15_linear_1168_50677)"/>
<path d="M101.742 315.495L43.3108 295.34C34.0653 292.197 29.2576 282.212 32.4011 272.966L52.5563 214.534C55.6997 205.289 65.6849 200.481 74.9304 203.625L133.362 223.78C142.607 226.923 147.415 236.909 144.272 246.154L124.116 304.586C120.973 313.831 110.988 318.639 101.742 315.495Z" fill="url(#paint16_linear_1168_50677)"/>
<path d="M76.034 288.681C75.1095 288.311 74.1849 287.756 73.2604 287.387C66.6036 283.873 61.6111 278.696 58.6525 271.669C56.0638 265.752 55.509 259.465 56.8034 253.178C59.5771 239.68 71.0414 229.325 84.9097 228.031C104.695 226.366 121.152 242.823 119.118 262.794C118.933 264.458 118.563 265.937 118.193 267.601C118.193 267.786 118.193 267.971 118.009 268.341C117.639 269.265 117.269 270.19 117.084 271.115C116.899 271.299 116.899 271.484 116.714 271.669C114.31 277.217 110.612 281.839 105.62 285.353C98.4081 290.345 90.457 292.009 81.7662 290.53C80.8417 290.345 79.7322 290.16 78.8077 289.975C77.8831 289.236 76.9586 288.866 76.034 288.681ZM97.4836 231.174C81.9512 225.812 65.1243 233.948 59.7619 249.48C54.3995 265.013 62.5356 281.839 77.8831 287.202C93.4156 292.564 110.427 284.428 115.79 268.896C121.152 253.548 113.016 236.536 97.4836 231.174Z" fill="url(#paint17_linear_1168_50677)"/>
<path d="M75.8505 272.777C75.8505 269.634 75.8505 266.49 75.8505 263.532C75.8505 256.69 75.8505 249.663 76.0354 242.822C76.0354 241.897 76.0354 241.897 76.96 242.082C77.6996 242.267 78.4392 242.637 79.1789 242.822C79.5487 243.007 79.7336 242.822 79.9185 242.452C80.4733 240.603 80.6582 240.973 78.8091 240.418C76.2203 239.678 73.6316 238.754 70.8579 237.829C76.775 233.391 83.4318 231.357 90.6433 232.282C99.7039 233.391 106.546 238.199 111.353 246.15C110.798 245.965 110.429 245.965 110.244 245.965C107.655 245.595 105.621 247.26 105.066 250.033C104.696 251.697 105.066 253.177 105.251 254.656C105.621 256.505 105.991 258.354 105.991 260.203C105.806 262.977 104.696 265.566 103.217 267.97C100.628 271.668 97.8548 275.181 95.266 278.694C95.266 278.694 95.266 278.694 95.0811 278.879C95.0811 278.694 95.0811 278.325 95.0811 278.14C95.0811 268.524 95.0811 259.094 95.266 249.479C95.266 249.294 95.266 249.294 95.266 249.109C95.266 248.554 95.4509 248.369 96.0057 248.554C96.7453 248.739 97.485 249.109 98.2246 249.294C98.5944 249.479 98.9642 249.294 98.9642 248.924C99.519 247.26 99.7039 247.445 97.8548 246.89C93.7867 245.411 89.5339 244.116 85.4658 242.637C83.9866 242.082 84.1714 242.082 83.8016 243.377C83.4318 244.301 83.4318 244.301 84.3564 244.486C85.096 244.671 85.6507 245.041 86.3904 245.226C86.7602 245.411 87.13 245.595 87.13 246.15C87.13 249.848 87.3149 253.547 87.3149 257.245C87.3149 257.43 87.3149 257.615 87.13 257.8C83.4318 262.607 79.7336 267.415 76.0354 272.222C76.0354 272.592 76.0354 272.592 75.8505 272.777Z" fill="url(#paint18_linear_1168_50677)"/>
<path d="M87.4988 261.5C87.6837 270.006 87.8687 278.142 87.8687 286.463C81.9516 286.463 76.5892 284.799 71.7815 281.285C77.1439 274.629 82.1364 268.157 87.4988 261.5Z" fill="url(#paint19_linear_1168_50677)"/>
<path d="M68.0815 240.604C68.2664 253.363 68.6363 265.752 68.8212 278.326C65.6777 276.847 61.4248 267.601 60.87 261.684C60.1304 253.733 62.5342 246.707 68.0815 240.604Z" fill="url(#paint20_linear_1168_50677)"/>
<path d="M92.491 285.907C93.6004 284.427 94.7099 283.133 95.6345 281.839C99.8874 276.476 104.325 270.929 108.578 265.567C110.982 262.423 113.016 259.095 114.31 255.396C115.975 258.91 113.756 268.895 110.427 274.257C105.805 281.469 98.0383 285.167 92.491 285.907Z" fill="url(#paint21_linear_1168_50677)"/>
<g opacity="0.7">
<path d="M279.798 241.37L321.281 246.815C329.609 247.937 337.297 242.01 338.418 233.682L343.864 192.2C344.985 183.871 339.059 176.183 330.73 175.062L289.248 169.617C280.92 168.495 273.232 174.422 272.111 182.75L266.665 224.232C265.544 232.561 271.47 240.249 279.798 241.37Z" fill="url(#paint22_linear_1168_50677)"/>
<path d="M276.273 240.889L317.755 246.335C326.083 247.456 333.771 241.53 334.892 233.202L340.338 191.719C341.459 183.391 335.533 175.703 327.205 174.582L285.722 169.136C277.394 168.015 269.706 173.941 268.585 182.27L263.139 223.752C262.018 232.08 267.784 239.768 276.273 240.889Z" fill="url(#paint23_linear_1168_50677)"/>
<path d="M322.082 233.682L277.877 227.916C277.076 227.756 276.436 226.955 276.596 226.154L282.202 182.75C282.362 181.949 283.163 181.308 283.964 181.468C284.764 181.629 285.405 182.429 285.245 183.23L279.799 225.193L322.403 230.799C323.204 230.959 323.844 231.76 323.684 232.561C323.524 233.361 322.883 233.842 322.082 233.682Z" fill="url(#paint24_linear_1168_50677)"/>
<path d="M291.49 223.112L283.642 221.991L287.967 189.638L295.654 190.599L291.49 223.112Z" fill="url(#paint25_linear_1168_50677)"/>
<path d="M303.18 224.554L295.332 223.593L298.215 201.17L306.063 202.291L303.18 224.554Z" fill="url(#paint26_linear_1168_50677)"/>
<path d="M314.872 225.994L307.024 225.033L308.626 213.181L316.314 214.142L314.872 225.994Z" fill="url(#paint27_linear_1168_50677)"/>
</g>
<path d="M49.6488 483.321C54.6135 483.321 59.401 484.031 64.0112 485.451C71.1037 461.486 93.1792 444 119.422 444C151.338 444 177.226 469.918 177.226 501.872C177.226 504.091 177.048 506.31 176.871 508.441C192.475 512.701 204 526.992 204 543.945C204 564.271 187.51 583 167.296 583C164.725 583 54.9682 583 49.7374 583C22.2539 583 0.0010384 560.721 0.0010384 533.205C-0.176275 505.6 22.1652 483.321 49.6488 483.321Z" fill="url(#paint28_linear_1168_50677)"/>
<path d="M111 419.988C111 410.027 102.82 401.947 92.7365 401.947C92.7068 401.947 92.7068 401.947 92.6771 401.947C92.8853 401.33 93.0042 400.654 93.0042 399.949C93.0042 396.452 90.1487 393.632 86.6091 393.632C85.8357 393.632 85.1218 393.779 84.4377 394.014C83.0992 384.964 75.187 378 65.6388 378C58.7975 378 52.8187 381.555 49.4872 386.903C48.9816 386.844 48.4462 386.815 47.9405 386.815C41.813 386.815 36.7564 391.399 36.1317 397.275C33.4844 396.129 30.5694 395.512 27.5057 395.512C15.6076 395.512 6 405.032 6 416.756C6 428.48 15.6374 438 27.5057 438C27.7734 438 28.0113 438 28.279 437.971C28.6062 437.971 28.9037 438 29.2606 438C29.9745 438 93.3909 438 93.3909 438C103.177 437.677 111 429.714 111 419.988Z" fill="url(#paint29_linear_1168_50677)"/>
</g>
<path d="M372.697 497.153C372.941 496.058 373.063 494.84 373.063 493.744C373.063 483.028 364.408 474.383 353.68 474.383C347.707 474.383 342.221 477.183 338.686 481.445C328.933 455.509 303.821 437 274.32 437C244.575 437 219.097 455.996 209.589 482.42C207.882 482.298 206.175 482.176 204.469 482.176C176.674 482.176 154 504.703 154 532.588C154 552.923 166.069 570.336 183.379 578.373C188.255 580.93 194.107 582.635 200.933 582.878C202.152 583 203.25 583 204.469 583C205.444 583 206.419 583 207.394 582.878C227.265 582.878 303.211 582.878 303.211 582.878C305.284 582.756 359.775 583 368.43 583C391.349 583 410 561.569 410 538.676C410 517.002 393.665 499.345 372.697 497.153Z" fill="url(#paint30_linear_1168_50677)"/>
<path d="M371.997 73.2315C371.715 52.8113 355.006 36.1328 334.352 35.6551C329.44 35.5357 324.73 36.3318 320.381 37.8842C319.938 38.0435 319.496 38.0833 319.053 38.0833C313.134 19.4941 295.54 6 274.765 6C257.171 6 241.871 15.6727 234.02 29.9231C232.531 28.1319 230.236 27.0173 227.699 27.0173C223.995 27.0173 220.855 29.4455 219.848 32.8289C216.708 30.361 212.722 28.8882 208.414 28.8882C198.187 28.8882 189.894 37.0881 189.894 47.1987C189.894 49.4278 190.296 51.5375 191.021 53.488C182.485 58.185 176.728 67.3005 177.01 77.7296C177.332 92.0197 189.088 103.683 203.502 104.081C208.052 104.2 212.4 103.245 216.184 101.374C225.606 122.352 246.864 137 271.584 137C292.641 137 311.161 126.412 322.032 110.29C325.615 111.405 329.44 111.962 333.426 111.962C354.885 111.923 372.278 94.5275 371.997 73.2315Z" fill="url(#paint31_linear_1168_50677)"/>
<path d="M409.997 56.9672C409.759 39.6645 395.621 25.5324 378.144 25.1276C373.988 25.0264 370.002 25.701 366.323 27.0164C365.948 27.1513 365.573 27.185 365.198 27.185C360.191 11.4339 345.303 0 327.724 0C312.837 0 299.891 8.19599 293.248 20.2707C291.987 18.753 290.046 17.8086 287.899 17.8086C284.765 17.8086 282.108 19.866 281.256 22.7329C278.599 20.6417 275.226 19.3938 271.581 19.3938C262.928 19.3938 255.91 26.3418 255.91 34.9088C255.91 36.7976 256.251 38.5852 256.864 40.2379C249.642 44.2179 244.77 51.9417 245.008 60.7785C245.281 72.887 255.229 82.7694 267.425 83.1067C271.274 83.2078 274.954 82.3984 278.156 80.8131C286.128 98.588 304.115 111 325.033 111C342.85 111 358.521 102.028 367.719 88.3683C370.751 89.3127 373.988 89.7849 377.361 89.7849C395.518 89.7511 410.236 75.0118 409.997 56.9672Z" fill="url(#paint32_linear_1168_50677)"/>
<path d="M77.0022 50.1367C77.1872 36.7311 88.1549 25.7818 101.712 25.4682C104.937 25.3899 108.029 25.9125 110.883 26.9316C111.174 27.0362 111.464 27.0623 111.755 27.0623C115.64 14.8587 127.189 6 140.826 6C152.375 6 162.418 12.35 167.571 21.7053C168.549 20.5293 170.056 19.7976 171.721 19.7976C174.152 19.7976 176.213 21.3917 176.874 23.6129C178.935 21.9927 181.552 21.0258 184.38 21.0258C191.092 21.0258 196.537 26.409 196.537 33.0465C196.537 34.5099 196.272 35.8949 195.797 37.1753C201.399 40.2589 205.178 46.2431 204.993 53.0896C204.782 62.471 197.065 70.1276 187.604 70.3889C184.617 70.4673 181.763 69.8402 179.279 68.612C173.095 82.3835 159.141 92 142.914 92C129.092 92 116.935 85.0489 109.799 74.4655C107.447 75.1972 104.937 75.5631 102.32 75.5631C88.2341 75.5369 76.8172 64.1173 77.0022 50.1367Z" fill="url(#paint33_linear_1168_50677)"/>
<path d="M89 115.094C89 109.615 84.5595 105.171 79.0855 105.171C79.0694 105.171 79.0694 105.171 79.0533 105.171C79.1663 104.832 79.2309 104.46 79.2309 104.072C79.2309 102.149 77.6807 100.597 75.7592 100.597C75.3394 100.597 74.9518 100.678 74.5805 100.808C73.8538 95.8301 69.5586 92 64.3754 92C60.6615 92 57.4159 93.9554 55.6074 96.8967C55.3329 96.8643 55.0422 96.8482 54.7677 96.8482C51.4414 96.8482 48.6963 99.3692 48.3572 102.601C46.9201 101.971 45.3377 101.632 43.6745 101.632C37.2156 101.632 32 106.868 32 113.316C32 119.764 37.2317 125 43.6745 125C43.8198 125 43.949 125 44.0943 124.984C44.272 124.984 44.4334 125 44.6272 125C45.0147 125 79.4408 125 79.4408 125C84.7533 124.822 89 120.443 89 115.094Z" fill="url(#paint34_linear_1168_50677)"/>
<defs>
<filter id="filter0_ddd_1168_50677" x="308" y="25" width="12" height="27" filterUnits="userSpaceOnUse" color-interpolation-filters="sRGB">
<feFlood flood-opacity="0" result="BackgroundImageFix"/>
<feColorMatrix in="SourceAlpha" type="matrix" values="0 0 0 0 0 0 0 0 0 0 0 0 0 0 0 0 0 0 127 0" result="hardAlpha"/>
<feOffset/>
<feGaussianBlur stdDeviation="2.5"/>
<feComposite in2="hardAlpha" operator="out"/>
<feColorMatrix type="matrix" values="0 0 0 0 0.172549 0 0 0 0 0.831373 0 0 0 0 0.85098 0 0 0 1 0"/>
<feBlend mode="normal" in2="BackgroundImageFix" result="effect1_dropShadow_1168_50677"/>
<feColorMatrix in="SourceAlpha" type="matrix" values="0 0 0 0 0 0 0 0 0 0 0 0 0 0 0 0 0 0 127 0" result="hardAlpha"/>
<feOffset/>
<feGaussianBlur stdDeviation="2.5"/>
<feComposite in2="hardAlpha" operator="out"/>
<feColorMatrix type="matrix" values="0 0 0 0 0.172549 0 0 0 0 0.831373 0 0 0 0 0.85098 0 0 0 1 0"/>
<feBlend mode="normal" in2="effect1_dropShadow_1168_50677" result="effect2_dropShadow_1168_50677"/>
<feColorMatrix in="SourceAlpha" type="matrix" values="0 0 0 0 0 0 0 0 0 0 0 0 0 0 0 0 0 0 127 0" result="hardAlpha"/>
<feOffset/>
<feGaussianBlur stdDeviation="2.5"/>
<feComposite in2="hardAlpha" operator="out"/>
<feColorMatrix type="matrix" values="0 0 0 0 0.172549 0 0 0 0 0.831373 0 0 0 0 0.85098 0 0 0 1 0"/>
<feBlend mode="normal" in2="effect2_dropShadow_1168_50677" result="effect3_dropShadow_1168_50677"/>
<feBlend mode="normal" in="SourceGraphic" in2="effect3_dropShadow_1168_50677" result="shape"/>
</filter>
<filter id="filter1_ddd_1168_50677" x="219" y="195" width="12" height="27" filterUnits="userSpaceOnUse" color-interpolation-filters="sRGB">
<feFlood flood-opacity="0" result="BackgroundImageFix"/>
<feColorMatrix in="SourceAlpha" type="matrix" values="0 0 0 0 0 0 0 0 0 0 0 0 0 0 0 0 0 0 127 0" result="hardAlpha"/>
<feOffset/>
<feGaussianBlur stdDeviation="2.5"/>
<feComposite in2="hardAlpha" operator="out"/>
<feColorMatrix type="matrix" values="0 0 0 0 0.172549 0 0 0 0 0.831373 0 0 0 0 0.85098 0 0 0 1 0"/>
<feBlend mode="normal" in2="BackgroundImageFix" result="effect1_dropShadow_1168_50677"/>
<feColorMatrix in="SourceAlpha" type="matrix" values="0 0 0 0 0 0 0 0 0 0 0 0 0 0 0 0 0 0 127 0" result="hardAlpha"/>
<feOffset/>
<feGaussianBlur stdDeviation="2.5"/>
<feComposite in2="hardAlpha" operator="out"/>
<feColorMatrix type="matrix" values="0 0 0 0 0.172549 0 0 0 0 0.831373 0 0 0 0 0.85098 0 0 0 1 0"/>
<feBlend mode="normal" in2="effect1_dropShadow_1168_50677" result="effect2_dropShadow_1168_50677"/>
<feColorMatrix in="SourceAlpha" type="matrix" values="0 0 0 0 0 0 0 0 0 0 0 0 0 0 0 0 0 0 127 0" result="hardAlpha"/>
<feOffset/>
<feGaussianBlur stdDeviation="2.5"/>
<feComposite in2="hardAlpha" operator="out"/>
<feColorMatrix type="matrix" values="0 0 0 0 0.172549 0 0 0 0 0.831373 0 0 0 0 0.85098 0 0 0 1 0"/>
<feBlend mode="normal" in2="effect2_dropShadow_1168_50677" result="effect3_dropShadow_1168_50677"/>
<feBlend mode="normal" in="SourceGraphic" in2="effect3_dropShadow_1168_50677" result="shape"/>
</filter>
<filter id="filter2_ddd_1168_50677" x="282" y="345" width="12" height="27" filterUnits="userSpaceOnUse" color-interpolation-filters="sRGB">
<feFlood flood-opacity="0" result="BackgroundImageFix"/>
<feColorMatrix in="SourceAlpha" type="matrix" values="0 0 0 0 0 0 0 0 0 0 0 0 0 0 0 0 0 0 127 0" result="hardAlpha"/>
<feOffset/>
<feGaussianBlur stdDeviation="2.5"/>
<feComposite in2="hardAlpha" operator="out"/>
<feColorMatrix type="matrix" values="0 0 0 0 0.172549 0 0 0 0 0.831373 0 0 0 0 0.85098 0 0 0 1 0"/>
<feBlend mode="normal" in2="BackgroundImageFix" result="effect1_dropShadow_1168_50677"/>
<feColorMatrix in="SourceAlpha" type="matrix" values="0 0 0 0 0 0 0 0 0 0 0 0 0 0 0 0 0 0 127 0" result="hardAlpha"/>
<feOffset/>
<feGaussianBlur stdDeviation="2.5"/>
<feComposite in2="hardAlpha" operator="out"/>
<feColorMatrix type="matrix" values="0 0 0 0 0.172549 0 0 0 0 0.831373 0 0 0 0 0.85098 0 0 0 1 0"/>
<feBlend mode="normal" in2="effect1_dropShadow_1168_50677" result="effect2_dropShadow_1168_50677"/>
<feColorMatrix in="SourceAlpha" type="matrix" values="0 0 0 0 0 0 0 0 0 0 0 0 0 0 0 0 0 0 127 0" result="hardAlpha"/>
<feOffset/>
<feGaussianBlur stdDeviation="2.5"/>
<feComposite in2="hardAlpha" operator="out"/>
<feColorMatrix type="matrix" values="0 0 0 0 0.172549 0 0 0 0 0.831373 0 0 0 0 0.85098 0 0 0 1 0"/>
<feBlend mode="normal" in2="effect2_dropShadow_1168_50677" result="effect3_dropShadow_1168_50677"/>
<feBlend mode="normal" in="SourceGraphic" in2="effect3_dropShadow_1168_50677" result="shape"/>
</filter>
<filter id="filter3_ddd_1168_50677" x="122" y="373" width="12" height="27" filterUnits="userSpaceOnUse" color-interpolation-filters="sRGB">
<feFlood flood-opacity="0" result="BackgroundImageFix"/>
<feColorMatrix in="SourceAlpha" type="matrix" values="0 0 0 0 0 0 0 0 0 0 0 0 0 0 0 0 0 0 127 0" result="hardAlpha"/>
<feOffset/>
<feGaussianBlur stdDeviation="2.5"/>
<feComposite in2="hardAlpha" operator="out"/>
<feColorMatrix type="matrix" values="0 0 0 0 0.172549 0 0 0 0 0.831373 0 0 0 0 0.85098 0 0 0 1 0"/>
<feBlend mode="normal" in2="BackgroundImageFix" result="effect1_dropShadow_1168_50677"/>
<feColorMatrix in="SourceAlpha" type="matrix" values="0 0 0 0 0 0 0 0 0 0 0 0 0 0 0 0 0 0 127 0" result="hardAlpha"/>
<feOffset/>
<feGaussianBlur stdDeviation="2.5"/>
<feComposite in2="hardAlpha" operator="out"/>
<feColorMatrix type="matrix" values="0 0 0 0 0.172549 0 0 0 0 0.831373 0 0 0 0 0.85098 0 0 0 1 0"/>
<feBlend mode="normal" in2="effect1_dropShadow_1168_50677" result="effect2_dropShadow_1168_50677"/>
<feColorMatrix in="SourceAlpha" type="matrix" values="0 0 0 0 0 0 0 0 0 0 0 0 0 0 0 0 0 0 127 0" result="hardAlpha"/>
<feOffset/>
<feGaussianBlur stdDeviation="2.5"/>
<feComposite in2="hardAlpha" operator="out"/>
<feColorMatrix type="matrix" values="0 0 0 0 0.172549 0 0 0 0 0.831373 0 0 0 0 0.85098 0 0 0 1 0"/>
<feBlend mode="normal" in2="effect2_dropShadow_1168_50677" result="effect3_dropShadow_1168_50677"/>
<feBlend mode="normal" in="SourceGraphic" in2="effect3_dropShadow_1168_50677" result="shape"/>
</filter>
<filter id="filter4_ddd_1168_50677" x="120" y="130" width="12" height="27" filterUnits="userSpaceOnUse" color-interpolation-filters="sRGB">
<feFlood flood-opacity="0" result="BackgroundImageFix"/>
<feColorMatrix in="SourceAlpha" type="matrix" values="0 0 0 0 0 0 0 0 0 0 0 0 0 0 0 0 0 0 127 0" result="hardAlpha"/>
<feOffset/>
<feGaussianBlur stdDeviation="2.5"/>
<feComposite in2="hardAlpha" operator="out"/>
<feColorMatrix type="matrix" values="0 0 0 0 0.172549 0 0 0 0 0.831373 0 0 0 0 0.85098 0 0 0 1 0"/>
<feBlend mode="normal" in2="BackgroundImageFix" result="effect1_dropShadow_1168_50677"/>
<feColorMatrix in="SourceAlpha" type="matrix" values="0 0 0 0 0 0 0 0 0 0 0 0 0 0 0 0 0 0 127 0" result="hardAlpha"/>
<feOffset/>
<feGaussianBlur stdDeviation="2.5"/>
<feComposite in2="hardAlpha" operator="out"/>
<feColorMatrix type="matrix" values="0 0 0 0 0.172549 0 0 0 0 0.831373 0 0 0 0 0.85098 0 0 0 1 0"/>
<feBlend mode="normal" in2="effect1_dropShadow_1168_50677" result="effect2_dropShadow_1168_50677"/>
<feColorMatrix in="SourceAlpha" type="matrix" values="0 0 0 0 0 0 0 0 0 0 0 0 0 0 0 0 0 0 127 0" result="hardAlpha"/>
<feOffset/>
<feGaussianBlur stdDeviation="2.5"/>
<feComposite in2="hardAlpha" operator="out"/>
<feColorMatrix type="matrix" values="0 0 0 0 0.172549 0 0 0 0 0.831373 0 0 0 0 0.85098 0 0 0 1 0"/>
<feBlend mode="normal" in2="effect2_dropShadow_1168_50677" result="effect3_dropShadow_1168_50677"/>
<feBlend mode="normal" in="SourceGraphic" in2="effect3_dropShadow_1168_50677" result="shape"/>
</filter>
<linearGradient id="paint0_linear_1168_50677" x1="220.552" y1="607" x2="220.552" y2="-35.9889" gradientUnits="userSpaceOnUse">
<stop stop-color="#C2D3EB" stop-opacity="0"/>
<stop offset="0.510417" stop-color="white"/>
<stop offset="1" stop-color="#C2D3EB" stop-opacity="0"/>
</linearGradient>
<linearGradient id="paint1_linear_1168_50677" x1="224.764" y1="607.045" x2="224.798" y2="-35.9462" gradientUnits="userSpaceOnUse">
<stop stop-color="#5333ED"/>
<stop offset="1" stop-color="#37A7DF"/>
</linearGradient>
<linearGradient id="paint2_linear_1168_50677" x1="45.9115" y1="537.347" x2="312.434" y2="46.0475" gradientUnits="userSpaceOnUse">
<stop stop-color="#5333ED"/>
<stop offset="1" stop-color="#5333ED" stop-opacity="0"/>
</linearGradient>
<linearGradient id="paint3_linear_1168_50677" x1="154.831" y1="60.4684" x2="455.343" y2="473.185" gradientUnits="userSpaceOnUse">
<stop stop-color="#5333ED" stop-opacity="0"/>
<stop offset="1" stop-color="#5333ED"/>
</linearGradient>
<linearGradient id="paint4_linear_1168_50677" x1="222.552" y1="607" x2="222.54" y2="533" gradientUnits="userSpaceOnUse">
<stop stop-color="#FAFAFA"/>
<stop offset="0.9999" stop-color="#F4F7FB" stop-opacity="0.338437"/>
<stop offset="1" stop-color="#F4F7FB" stop-opacity="0"/>
</linearGradient>
<linearGradient id="paint5_linear_1168_50677" x1="199.867" y1="270.774" x2="186.093" y2="231.214" gradientUnits="userSpaceOnUse">
<stop stop-color="#A3B9D8"/>
<stop offset="1" stop-color="#D0DDF1"/>
</linearGradient>
<linearGradient id="paint6_linear_1168_50677" x1="172.218" y1="235.553" x2="218.698" y2="274.622" gradientUnits="userSpaceOnUse">
<stop stop-color="#DFE9F8"/>
<stop offset="1" stop-color="#C2D3EB"/>
</linearGradient>
<linearGradient id="paint7_linear_1168_50677" x1="185.793" y1="239.88" x2="195.22" y2="249.918" gradientUnits="userSpaceOnUse">
<stop stop-color="#9BB3CE"/>
<stop offset="1" stop-color="#B5C8E1"/>
</linearGradient>
<linearGradient id="paint8_linear_1168_50677" x1="185.891" y1="254.533" x2="201.562" y2="271.219" gradientUnits="userSpaceOnUse">
<stop stop-color="#9BB3CE"/>
<stop offset="1" stop-color="#B5C8E1"/>
</linearGradient>
<linearGradient id="paint9_linear_1168_50677" x1="152.782" y1="319.599" x2="216.501" y2="394.035" gradientUnits="userSpaceOnUse">
<stop stop-color="#A3B9D8"/>
<stop offset="1" stop-color="#D0DDF1"/>
</linearGradient>
<linearGradient id="paint10_linear_1168_50677" x1="160.522" y1="319.645" x2="221.82" y2="401.736" gradientUnits="userSpaceOnUse">
<stop stop-color="#DFE9F8"/>
<stop offset="1" stop-color="#C2D3EB"/>
</linearGradient>
<linearGradient id="paint11_linear_1168_50677" x1="175.8" y1="334.83" x2="199.503" y2="375.884" gradientUnits="userSpaceOnUse">
<stop stop-color="#9BB3CE"/>
<stop offset="1" stop-color="#B5C8E1"/>
</linearGradient>
<linearGradient id="paint12_linear_1168_50677" x1="298.368" y1="344.781" x2="376.995" y2="391.547" gradientUnits="userSpaceOnUse">
<stop stop-color="#A3B9D8"/>
<stop offset="1" stop-color="#D0DDF1"/>
</linearGradient>
<linearGradient id="paint13_linear_1168_50677" x1="305.233" y1="342.514" x2="384.002" y2="396.776" gradientUnits="userSpaceOnUse">
<stop stop-color="#DFE9F8"/>
<stop offset="1" stop-color="#C2D3EB"/>
</linearGradient>
<linearGradient id="paint14_linear_1168_50677" x1="326.173" y1="345.113" x2="351.371" y2="388.757" gradientUnits="userSpaceOnUse">
<stop stop-color="#9BB3CE"/>
<stop offset="1" stop-color="#B5C8E1"/>
</linearGradient>
<linearGradient id="paint15_linear_1168_50677" x1="32.9308" y1="227.602" x2="139.684" y2="291.097" gradientUnits="userSpaceOnUse">
<stop stop-color="#A3B9D8"/>
<stop offset="1" stop-color="#D0DDF1"/>
</linearGradient>
<linearGradient id="paint16_linear_1168_50677" x1="49.116" y1="206.594" x2="140.247" y2="328.637" gradientUnits="userSpaceOnUse">
<stop stop-color="#DFE9F8"/>
<stop offset="1" stop-color="#C2D3EB"/>
</linearGradient>
<linearGradient id="paint17_linear_1168_50677" x1="74.6404" y1="224.622" x2="107.326" y2="276.08" gradientUnits="userSpaceOnUse">
<stop stop-color="#9BB3CE"/>
<stop offset="1" stop-color="#B5C8E1"/>
</linearGradient>
<linearGradient id="paint18_linear_1168_50677" x1="82.7255" y1="229.622" x2="108.277" y2="264.405" gradientUnits="userSpaceOnUse">
<stop stop-color="#9BB3CE"/>
<stop offset="1" stop-color="#B5C8E1"/>
</linearGradient>
<linearGradient id="paint19_linear_1168_50677" x1="76.496" y1="260.198" x2="90.772" y2="274.677" gradientUnits="userSpaceOnUse">
<stop stop-color="#9BB3CE"/>
<stop offset="1" stop-color="#B5C8E1"/>
</linearGradient>
<linearGradient id="paint20_linear_1168_50677" x1="63.1079" y1="238.638" x2="76.1717" y2="243.042" gradientUnits="userSpaceOnUse">
<stop stop-color="#9BB3CE"/>
<stop offset="1" stop-color="#B5C8E1"/>
</linearGradient>
<linearGradient id="paint21_linear_1168_50677" x1="99.0512" y1="253.806" x2="116.322" y2="273.748" gradientUnits="userSpaceOnUse">
<stop stop-color="#9BB3CE"/>
<stop offset="1" stop-color="#B5C8E1"/>
</linearGradient>
<linearGradient id="paint22_linear_1168_50677" x1="337.54" y1="179.116" x2="270.008" y2="239.834" gradientUnits="userSpaceOnUse">
<stop stop-color="#A3B9D8"/>
<stop offset="1" stop-color="#D0DDF1"/>
</linearGradient>
<linearGradient id="paint23_linear_1168_50677" x1="330.337" y1="178.16" x2="264.083" y2="246.233" gradientUnits="userSpaceOnUse">
<stop stop-color="#DFE9F8"/>
<stop offset="1" stop-color="#C2D3EB"/>
</linearGradient>
<linearGradient id="paint24_linear_1168_50677" x1="275.258" y1="186.085" x2="307.749" y2="242.361" gradientUnits="userSpaceOnUse">
<stop stop-color="#9BB3CE"/>
<stop offset="1" stop-color="#B5C8E1"/>
</linearGradient>
<linearGradient id="paint25_linear_1168_50677" x1="282.015" y1="192.982" x2="297.406" y2="219.64" gradientUnits="userSpaceOnUse">
<stop stop-color="#9BB3CE"/>
<stop offset="1" stop-color="#B5C8E1"/>
</linearGradient>
<linearGradient id="paint26_linear_1168_50677" x1="295.001" y1="203.068" x2="306.337" y2="222.702" gradientUnits="userSpaceOnUse">
<stop stop-color="#9BB3CE"/>
<stop offset="1" stop-color="#B5C8E1"/>
</linearGradient>
<linearGradient id="paint27_linear_1168_50677" x1="308.163" y1="213.444" x2="315.265" y2="225.745" gradientUnits="userSpaceOnUse">
<stop stop-color="#9BB3CE"/>
<stop offset="1" stop-color="#B5C8E1"/>
</linearGradient>
<linearGradient id="paint28_linear_1168_50677" x1="111.019" y1="585.854" x2="84.7713" y2="452.01" gradientUnits="userSpaceOnUse">
<stop stop-color="#FAFAFA"/>
<stop offset="1" stop-color="#D1DFF2"/>
</linearGradient>
<linearGradient id="paint29_linear_1168_50677" x1="54.8579" y1="435.439" x2="66.7351" y2="377.952" gradientUnits="userSpaceOnUse">
<stop offset="0.1833" stop-color="white" stop-opacity="0.28"/>
<stop offset="0.425" stop-color="#F6F9FD"/>
<stop offset="0.8128" stop-color="#DFE9F6"/>
<stop offset="1" stop-color="#D1DFF2"/>
</linearGradient>
<linearGradient id="paint30_linear_1168_50677" x1="286.426" y1="581.102" x2="273.383" y2="448.035" gradientUnits="userSpaceOnUse">
<stop offset="0.1802" stop-color="#FAFAFA"/>
<stop offset="0.4208" stop-color="#F7F9FD"/>
<stop offset="0.8031" stop-color="#E0E9F6"/>
<stop offset="1" stop-color="#D1DFF2"/>
</linearGradient>
<linearGradient id="paint31_linear_1168_50677" x1="296.292" y1="133.094" x2="245.566" y2="-6.50739" gradientUnits="userSpaceOnUse">
<stop offset="0.114583" stop-color="#FAFAFA"/>
<stop offset="1" stop-color="#D1DFF2"/>
</linearGradient>
<linearGradient id="paint32_linear_1168_50677" x1="345.939" y1="107.691" x2="302.912" y2="-10.5596" gradientUnits="userSpaceOnUse">
<stop offset="0.114583" stop-color="#FAFAFA"/>
<stop offset="1" stop-color="#D1DFF2"/>
</linearGradient>
<linearGradient id="paint33_linear_1168_50677" x1="126.696" y1="89.4359" x2="159.999" y2="-2.20841" gradientUnits="userSpaceOnUse">
<stop offset="0.114583" stop-color="#FAFAFA"/>
<stop offset="1" stop-color="#D1DFF2"/>
</linearGradient>
<linearGradient id="paint34_linear_1168_50677" x1="58.5229" y1="123.591" x2="65.1341" y2="92.0076" gradientUnits="userSpaceOnUse">
<stop offset="0.1833" stop-color="white" stop-opacity="0.28"/>
<stop offset="0.425" stop-color="#F6F9FD"/>
<stop offset="0.8128" stop-color="#DFE9F6"/>
<stop offset="1" stop-color="#D1DFF2"/>
</linearGradient>
<clipPath id="clip0_1168_50677">
<rect width="370" height="532" fill="white" transform="translate(0 49)"/>
</clipPath>
</defs>
</svg>
