<svg width="240" height="110" fill="none" xmlns="http://www.w3.org/2000/svg"><g clip-path="url(#a)"><path d="M203.669 77.358c0-5.3-4.289-9.599-9.576-9.599h-.032a3.35 3.35 0 0 0 .172-1.063 3.352 3.352 0 0 0-3.353-3.361c-.406 0-.78.078-1.139.203-.702-4.815-4.851-8.52-9.857-8.52a9.914 9.914 0 0 0-8.47 4.736 7.045 7.045 0 0 0-.811-.046 6.229 6.229 0 0 0-6.192 5.565 11.21 11.21 0 0 0-4.523-.938c-6.239 0-11.277 5.066-11.277 11.303 0 6.238 5.054 11.304 11.277 11.304.14 0 .265 0 .406-.016.171 0 .327.016.514.016h33.628c5.131-.172 9.233-4.409 9.233-9.584Z" fill="url(#b)"/><path d="M30.196 26.253c0-5.82 4.71-10.542 10.516-10.542h.034a3.704 3.704 0 0 1-.188-1.167 3.681 3.681 0 0 1 3.683-3.691c.445 0 .856.086 1.25.223.77-5.287 5.327-9.356 10.825-9.356 3.939 0 7.381 2.077 9.3 5.202.29-.035.6-.052.89-.052a6.84 6.84 0 0 1 6.8 6.112 12.308 12.308 0 0 1 4.967-1.03c6.851 0 12.383 5.562 12.383 12.412 0 6.85-5.55 12.412-12.383 12.412-.154 0-.291 0-.445-.017-.189 0-.36.017-.566.017H40.337c-5.636-.188-10.14-4.84-10.14-10.523Z" fill="url(#c)"/><path d="M156.816 63.166s-14.152-.089-19.648 7.98c-7.15 10.522 0 25.123 0 25.123l12.232-4.877s-6.5-8.394-3.398-13.596c3.9-6.532 14.685-3.133 19.678-5.231.916-.384 5.141-3.103.68-11.468l-9.544 2.07Z" fill="url(#d)"/><path d="M137.168 96.298s1.744-2.69 5.851-4.375c4.254-1.714 6.382-.502 6.382-.502s-1.212 3.044-5.289 4.729c-4.284 1.744-6.944.148-6.944.148Z" fill="#160081"/><path d="M143.491 100.022c.503 1.211-.207 2.275-.207 2.275l-2.393 3.429a.413.413 0 0 0-.059.325.359.359 0 0 0 .591.148l7.771-7.596a.81.81 0 0 0 .177-.916l-.118-.266-5.762 2.601Z" fill="#5333ED"/><path d="M144.939 91.273c-.768.207-1.743.473-2.748.975-1.182.621-2.127 1.153-2.866 1.803l4.107 5.971 5.791-2.572-4.284-6.177ZM150.7 47.739c-4.461 3.31-8.627 4.167-11.375 3.015-.591-.267-3.605-1.153-4.196-5.261-.384-2.601.444-4.434 1.035-5.025l2.541-1.862c.206-.177.236-.443.088-.68a.51.51 0 0 0-.65-.148l-.975.444s-.414.207-.679 0c-.355-.266-.119-.71-.119-.71l1.123-2.926c.118-.325-.059-.561-.266-.62-.236-.089-.473.03-.561.266l-1.212 2.364.887-3.251a.492.492 0 0 0-.355-.591c-.266-.06-.502.059-.62.384l-1.093 3.074.443-3.044a.455.455 0 0 0-.443-.444.477.477 0 0 0-.473.414l-.857 3.192.177-2.04c0-.236-.147-.413-.384-.413 0 0-.325-.03-.473.414-.265.887-.443 2.6-.827 3.517-.148.355-1.064 2.69-1.359 5.882-.502 5.142 1.921 10.02 5.939 12.177 4.166 2.216 9.868 2.157 13.621-.119 2.688-1.625 3.87-2.453 5.377-4.551l-4.314-3.458Z" fill="#7A2E1E"/><path d="M150.464 51.049s-2.009-5.439 3.723-6.591l11.464-2.158a7.062 7.062 0 0 1 3.043.118c2.068.591 4.58 2.453 3.427 8.099 0 0 .473 8.423.207 13.359l-13.68.916-8.184-13.743Z" fill="#fff"/><path d="m157.112 46.704-.798-3.842 4.875-1.3.709 3.073c.355.887-.029 2.069-1.004 2.867-1.152.946-2.659 1.034-3.398.148-.236-.237-.354-.591-.384-.946Z" fill="#7A2E1E"/><path d="m161.544 43.098-.266-1.153-4.846 1.478.325 1.596s2.955.68 4.787-1.921Z" fill="#5B1B10"/><path d="M161.414 42.914a.916.916 0 1 1 .206-1.82.916.916 0 0 1-.206 1.82Z" fill="#7A2E1E"/><path d="M157.777 43.93c-2.424-.274-4.161-2.509-3.881-4.99.281-2.483 2.473-4.272 4.897-3.998 2.424.275 4.161 2.51 3.88 4.991-.281 2.482-2.473 4.272-4.896 3.997Z" fill="#7A2E1E"/><path d="M162.998 38.381c1.347.536 2.878-.135 3.419-1.497.541-1.362-.113-2.901-1.46-3.437-1.348-.535-2.879.135-3.42 1.497-.541 1.363.113 2.901 1.461 3.437Z" fill="#0C022F"/><path d="M162.693 38.871c.359-2.67-1.694-5.052-4.353-5.28a4.82 4.82 0 0 0-3.072.787 1.203 1.203 0 0 0-.417-.363 1.204 1.204 0 0 0-1.628.444 1.204 1.204 0 0 0 .444 1.629c.094.054 2.345 1.798 4.623 1.892.968.053 2.327-.212 3.188.03.636.197.973.556 1.152 1.117l.063-.256Z" fill="#0C022F"/><path d="M151.173 45.965c-1.507 1.655-3.811 3.813-5.88 4.345l2.837 6.443c3.398-1.035 6.884-4.315 8.509-6.62l-5.466-4.168Z" fill="#fff"/><path d="M183.408 25.956c.266.266 2.925 2.896 4.461 5.675 2.482 4.522 2.187 9.487-.473 13.211-.266.384-.206.325-.502.68-3.014 3.458-7.534 5.084-11.878 4.463-3.132-.444-5.466-1.567-7.711-2.867l2.334-4.227c5.909 1.33 9.721 1.419 12.38-1.625 1.093-1.242 2.393-3.28 1.359-7.271-.68-2.542-2.157-3.901-2.925-4.226l-.798-.178c-.679-.148-1.3-.532-1.773-1.034l-.827-.976c-.236-.295-.177-.561 0-.709.266-.207.591-.03.709.236l.591 1.005h.325s.473.03.621-.266c.206-.384-.178-.709-.178-.709" fill="#7A2E1E"/><path d="M176.937 26.222c-.207-.769.561-1.3 1.005-1.448l2.452-.828c.886-.177 1.684.739 2.157 1.123l.886.887-4.225 2.749-2.275-2.483Z" fill="#7A2E1E"/><path d="m176.937 26.222.798 2.04c.177.324.62.472.975.324l.088-.059c.325-.148.503-.502.414-.827l-.266-1.951-2.009.473Z" fill="url(#e)"/><path d="m176.937 26.222.798 2.04c.177.324.62.472.975.324l.088-.059c.325-.148.503-.502.414-.827l-.266-1.951-2.009.473Z" fill="url(#f)"/><path d="m177.705 25.808.946 2.394c.177.325.62.473.975.325l.088-.059c.325-.148.503-.502.414-.827l-.266-1.951-2.157.118Z" fill="url(#g)"/><path d="m177.705 25.808.946 2.394c.177.325.62.473.975.325l.088-.059c.325-.148.503-.502.414-.827l-.266-1.951-2.157.118Z" fill="url(#h)"/><path d="m178.68 25.365.975 2.453c.148.325.532.473.857.325l.266-.089c.295-.118.473-.414.325-.857l-.414-1.98-2.009.148Z" fill="url(#i)"/><path d="m178.68 25.365.975 2.453c.148.325.532.473.857.325l.266-.089c.295-.118.473-.414.325-.857l-.414-1.98-2.009.148Z" fill="url(#j)"/><path d="m182.373 26.813-.561-.118-.118-1.714-1.743.118.827 2.276a.868.868 0 0 0 .65.266h.857c.177 0 .354-.118.384-.296.089-.266-.059-.502-.296-.532Z" fill="url(#k)"/><path d="m182.373 26.813-.561-.118-.118-1.714-1.743.118.827 2.276a.868.868 0 0 0 .65.266h.857c.177 0 .354-.118.384-.296.089-.266-.059-.502-.296-.532Z" fill="url(#l)"/><path d="M168.812 42.448c2.718.946 5.762 1.33 8.066 1.064l.237 7.064c-4.285.502-9.071-.917-11.494-2.365l3.191-5.763Z" fill="#fff"/><path d="m172.328 63.876-7.327-3.4c0 .06-15.542-8.393-23.342-.768-11.169 10.936 6.086 28.315 6.086 28.315l10.312-7.507s-4.373-4.995-6.53-8.542c-1.625-2.69-.236-5.143 1.95-4.345 4.964 1.803 9.278 6.325 14.36 4.493 5.2-1.862 4.491-8.246 4.491-8.246Z" fill="url(#m)"/><path d="M147.746 88.022s.413-3.074 4.077-5.615c3.752-2.63 6.264-1.892 6.264-1.892s-.502 3.251-4.107 5.793c-3.782 2.66-6.234 1.714-6.234 1.714Z" fill="#160081"/><path d="M155.96 89.913c.62 1.153.029 2.276.029 2.276l-1.98 3.665c-.059.089-.059.207 0 .325.119.237.444.296.621.089l6.884-8.394a.86.86 0 0 0 .089-.916l-.148-.237-5.495 3.192Z" fill="#5333ED"/><path d="M155.871 80.544c-1.95.266-4.668 2.158-5.555 3.074l5.614 6.296 5.496-3.192-5.555-6.178Z" fill="#7A2E1E"/><path d="M92.105 50.45c4.441 3.481 8.643 4.472 11.464 3.361.63-.24 3.691-1.08 4.412-5.222.45-2.61-.33-4.502-.901-5.132l-2.551-1.95a.545.545 0 0 1-.06-.69.48.48 0 0 1 .661-.12l.96.48s.42.21.69.03c.36-.27.15-.721.15-.721l-1.05-3.001c-.12-.33.09-.57.3-.63.24-.09.48.06.57.27l1.171 2.43-.811-3.3c-.06-.3.12-.54.361-.57.27-.06.51.09.63.42l1.02 3.15-.36-3.09c0-.24.21-.42.45-.42.24 0 .45.18.45.42l.781 3.24-.12-2.07c.03-.24.18-.42.42-.42 0 0 .33 0 .45.42.24.9.39 2.64.75 3.601.12.36.991 2.761 1.231 6.002.36 5.253-2.221 10.114-6.363 12.215-4.291 2.161-10.084 1.921-13.835-.48-2.701-1.74-3.872-2.61-5.342-4.772l4.472-3.451Z" fill="#FFC398"/><path d="M91.684 48.619c1.5 1.71 3.782 3.962 5.853 4.562l-3.032 6.482c-3.42-1.14-6.902-4.562-8.463-6.932l5.642-4.112Z" fill="#DFE9F8"/><path d="M124.087 55.478a.82.82 0 1 0 0-1.642.82.82 0 0 0 0 1.642ZM130.012 60.539l-1.648 1.648 1.648 1.649 1.649-1.649-1.649-1.648ZM71.525 9.506l-1.719 1.719 1.719 1.718 1.718-1.718-1.718-1.719ZM139.356 9.933a1.05 1.05 0 1 0 0-2.101 1.05 1.05 0 0 0 0 2.1ZM153.371 10.021l-1.579 1.58 1.579 1.578 1.579-1.579-1.579-1.579Z" fill="#2CD4D9"/><path d="M82.089 7.569s16.156-1.248 30.276 6.009c10.113 5.188 26.236 7.29 34.281 4.104l-6.764 34.25s-17.699 3.447-36.679-4.795C87.015 40.11 75.259 40.34 75.259 40.34l6.83-32.771Z" fill="url(#n)"/><path d="M134.201 48.714a3.952 3.952 0 0 1 3.941-3.94h.164l4.039-19.539a3.989 3.989 0 0 1-3.087-3.35c-8.078.789-21.048-2.298-28.469-6.107-8.275-4.269-17.371-5.155-22.428-5.287a3.952 3.952 0 0 1-3.94 3.94c-.263 0-.526-.032-.789-.065l-4.236 19.505a3.952 3.952 0 0 1 3.941 3.94c0 .132 0 .263-.033.395 4.302.558 11.263 1.97 19.505 5.55 4.499 1.937 8.998 3.71 13.332 4.596 7.651 1.577 14.481 1.61 18.192 1.445-.099-.328-.132-.722-.132-1.083Z" fill="#DFE9F8"/><path d="M88.46 31.802c-.296-.36-.165-.656.164-.985l1.248-1.346c.328-.329.525-.329.82 0 .657.82 1.38 1.609 2.595 2.2l1.017-3.973c-1.871-1.74-4.137-3.744-3.415-6.568.624-2.364 2.792-3.973 6.01-3.448l.197-.755a.45.45 0 0 1 .558-.328l.46.13a.46.46 0 0 1 .328.56l-.197.787c2.102.755 3.448 2.233 3.973 2.89.23.23.099.657-.065.788l-1.806 1.543c-.263.197-.526.165-.69-.032-.558-.69-1.05-1.314-2.233-2.102l-.92 3.48c1.774 1.708 4.434 3.646 3.58 6.864-.624 2.43-3.087 4.104-6.305 3.58l-.624 2.462c-.066.23-.328.361-.558.295l-.46-.13a.46.46 0 0 1-.328-.56l.624-2.462c-2.266-.788-3.58-2.331-3.974-2.89Zm7.65-11.197c-.787-.099-1.51.295-1.674.886-.23.854.066 1.38.886 2.2l.789-3.086Zm.132 10.344c.197-.723-.066-1.544-.755-2.332l-.887 3.448c.755.033 1.445-.361 1.642-1.116Z" fill="url(#o)"/><path d="m108.063 35.184 4.236 1.117a.489.489 0 0 1 .361.591l-.558 2.167a.49.49 0 0 1-.591.362l-9.786-2.529c-.262-.066-.394-.328-.328-.591l.033-.197c.066-.23.066-.296.492-.624 2.102-1.675 6.502-5.254 8.407-6.961.427-.427.919-1.018 1.084-1.675.229-.953-.329-1.97-1.675-2.332-.985-.262-1.905.165-2.693.624-.23.131-.558.066-.689-.164l-1.117-1.905c-.131-.197-.066-.492.131-.656 1.183-.756 3.087-1.74 5.517-1.117 3.481.92 4.959 3.678 4.269 6.37-.328 1.314-.887 1.938-1.773 2.923-1.117 1.182-3.777 3.251-5.353 4.565l.033.032Z" fill="url(#p)"/><path d="M116.995 31.967c1.379-5.353 4.466-7.947 8.439-6.93 3.973 1.019 5.451 4.795 4.039 10.18-1.379 5.353-4.499 7.947-8.472 6.93-3.973-1.051-5.386-4.828-4.006-10.18Zm8.767 2.266c.821-3.219.263-5.353-1.215-5.747-1.477-.394-2.988 1.215-3.842 4.433-.821 3.218-.295 5.385 1.182 5.747 1.511.394 3.054-1.183 3.875-4.433Z" fill="url(#q)"/><path d="M84.572 69.086s13.204 3.271 15.275 12.995c2.671 12.635-10.414 23.289-10.414 23.289L79.8 96.096s10.114-5.042 9.183-11.164c-1.17-7.623-12.454-6.512-16.356-10.414-.72-.72-3.661-4.892 3.752-11.014l8.193 5.582Z" fill="url(#r)"/><path d="M89.434 105.34s-.6-3.211-3.842-6.362c-3.331-3.242-5.792-2.911-5.792-2.911s-.03 3.33 3.181 6.482c3.331 3.271 6.453 2.791 6.453 2.791Z" fill="#160081"/><path d="M82.08 106.42c-.78.631-.63 1.741-.63 1.741l.27 1.381c.03.12 0 .24-.09.33-.18.21-.51.15-.63-.09l-3.811-6.843c-.15-.3-.06-.69.18-.93l.21-.21 4.502 4.621Z" fill="#DFE9F8"/><path d="M84.032 97.657c.63.51 1.44 1.11 2.19 1.98.87 1.021 1.561 1.892 1.981 2.792l-6.152 4.021-4.472-4.651 6.453-4.142Z" fill="#FFC398"/><path d="M91.805 53.33s2.01-5.521-3.842-6.662l-11.674-2.13a6.748 6.748 0 0 0-3.091.15c-2.071.63-4.622 2.52-3.452 8.253 0 0-.42 8.553-.12 13.565l13.896.84 8.283-14.015Z" fill="#DFE9F8"/><path d="m85.022 48.95.78-3.902-4.952-1.29-.69 3.12c-.36.9.03 2.101 1.02 2.911 1.17.96 2.701 1.02 3.452.15.24-.27.36-.6.39-.99Z" fill="#FFC398"/><path d="m80.49 45.318.27-1.17 5.102.66-.48 2.43c-.03 0-3.001.721-4.892-1.92Z" fill="#EBA87C"/><path d="M78.63 42.587a1.68 1.68 0 1 0 0-3.362 1.68 1.68 0 0 0 0 3.362ZM83.791 39.136a1.68 1.68 0 1 0 0-3.362 1.68 1.68 0 0 0 0 3.361Z" fill="#724C3B"/><path d="M80.16 45.528a.93.93 0 1 0 0-1.86.93.93 0 0 0 0 1.86Z" fill="#FFC398"/><path d="M83.341 46.248a4.052 4.052 0 1 0 0-8.103 4.052 4.052 0 0 0 0 8.103ZM58.192 28.061c-.27.27-2.971 2.972-4.502 5.793-2.49 4.622-2.16 9.664.54 13.415.27.36.21.33.54.69 3.092 3.482 7.684 5.132 12.095 4.472 3.182-.48 5.553-1.62 7.803-2.971l-2.4-4.262c-6.003 1.38-9.844 1.5-12.575-1.59-1.11-1.26-2.461-3.302-1.41-7.383.66-2.581 2.16-3.962 2.94-4.292l.81-.18c.69-.15 1.321-.54 1.801-1.08l.84-.99c.24-.301.18-.571 0-.721-.27-.21-.6-.03-.72.24l-.6 1.05h-.33s-.48.03-.63-.27c-.21-.39.18-.72.18-.72" fill="#FFC398"/><path d="M64.765 28.302c.21-.78-.57-1.321-1.02-1.471l-2.492-.81c-.9-.18-1.71.75-2.19 1.17l-.901.9 4.292 2.762 2.31-2.551Z" fill="#FFC398"/><path d="m64.764 28.302-.78 2.07c-.18.33-.6.48-.96.33l-.09-.03a.786.786 0 0 1-.45-.84l.24-1.98 2.04.45Z" fill="url(#s)"/><path d="m63.984 27.881-.93 2.431c-.18.33-.6.48-.96.33l-.09-.03a.786.786 0 0 1-.45-.84l.24-1.981 2.19.09Z" fill="url(#t)"/><path d="m62.964 27.401-.96 2.491a.66.66 0 0 1-.87.33l-.27-.09c-.301-.12-.481-.42-.331-.87l.42-2.011 2.01.15Z" fill="url(#u)"/><path d="m59.242 28.901.57-.12.12-1.74 1.771.09-.84 2.31c-.18.18-.39.27-.66.27h-.87c-.18 0-.36-.12-.39-.3-.09-.21.06-.45.3-.51Z" fill="url(#v)"/><path d="M73.108 44.718c-2.762.99-5.853 1.38-8.194 1.11l-.21 7.173c4.352.48 9.214-.99 11.645-2.46l-3.242-5.823Z" fill="#DFE9F8"/><path d="M86.913 39.976a4.197 4.197 0 0 0-5.522-1.44 4.22 4.22 0 0 0-1.861 5.401l7.383-3.961Z" fill="#724C3B"/><path d="m69.716 63.775 8.193-.39c-.03.03 17.827-1.921 22.239 8.253 6.303 14.555-18.727 23.199-18.727 23.199l-5.042-11.945s6.422-1.02 9.784-3.541c2.55-1.891 2.19-4.742-.18-4.832-5.343-.21-11.165 2.4-15.246-1.29-4.142-3.752-1.02-9.454-1.02-9.454Z" fill="url(#w)"/><path d="M81.42 94.836s1.231-2.88-.6-7.022c-1.89-4.262-4.471-4.922-4.471-4.922s-1.26 3.09.54 7.172c1.89 4.352 4.532 4.772 4.532 4.772Z" fill="#160081"/><path d="M73.287 92.195c-1.14.66-1.23 1.981-1.23 1.981l-.21 1.38c0 .12-.06.21-.15.3-.24.15-.54.03-.57-.24l-1.591-8.043c-.06-.33.12-.69.42-.84l.24-.15 3.091 5.612Z" fill="#DFE9F8"/><path d="M78.24 84.092c1.56 1.26 2.94 4.322 3.21 5.582l-8.193 2.521-3.06-5.642 8.043-2.461Z" fill="#FFC398"/><path d="M132.723 46.02a.69.69 0 1 0 0-1.38.69.69 0 0 0 0 1.38Z" fill="#2CD4D9"/></g><defs><linearGradient id="b" x1="174.23" y1="85.579" x2="180.635" y2="55.029" gradientUnits="userSpaceOnUse"><stop offset=".183" stop-color="#fff" stop-opacity=".28"/><stop offset=".425" stop-color="#F6F9FD" stop-opacity=".7"/><stop offset=".813" stop-color="#DFE9F6" stop-opacity=".9"/><stop offset="1" stop-color="#D1DFF2" stop-opacity=".8"/></linearGradient><linearGradient id="c" x1="62.523" y1="35.28" x2="55.49" y2="1.732" gradientUnits="userSpaceOnUse"><stop offset=".183" stop-color="#fff" stop-opacity=".28"/><stop offset=".425" stop-color="#F6F9FD" stop-opacity=".5"/><stop offset=".813" stop-color="#DFE9F6" stop-opacity=".6"/><stop offset="1" stop-color="#D1DFF2" stop-opacity=".4"/></linearGradient><linearGradient id="d" x1="144.028" y1="79.802" x2="133.617" y2="83.422" gradientUnits="userSpaceOnUse"><stop stop-color="#2309A5"/><stop offset="1" stop-color="#543AD0"/></linearGradient><linearGradient id="e" x1="178.067" y1="27.02" x2="179.369" y2="27.399" gradientUnits="userSpaceOnUse"><stop stop-color="#FFC398"/><stop offset=".399" stop-color="#F6B78B"/><stop offset="1" stop-color="#EBA87C"/></linearGradient><linearGradient id="f" x1="178.217" y1="26.263" x2="177.392" y2="29.24" gradientUnits="userSpaceOnUse"><stop stop-color="#7A2E1E"/><stop offset=".45" stop-color="#6A2417"/><stop offset="1" stop-color="#5B1B10"/></linearGradient><linearGradient id="g" x1="178.869" y1="26.911" x2="180.281" y2="27.323" gradientUnits="userSpaceOnUse"><stop stop-color="#FFC398"/><stop offset=".399" stop-color="#F6B78B"/><stop offset="1" stop-color="#EBA87C"/></linearGradient><linearGradient id="h" x1="179.068" y1="26.204" x2="178.286" y2="29.206" gradientUnits="userSpaceOnUse"><stop stop-color="#7A2E1E"/><stop offset=".45" stop-color="#6A2417"/><stop offset="1" stop-color="#5B1B10"/></linearGradient><linearGradient id="i" x1="180.057" y1="26.672" x2="181.293" y2="26.641" gradientUnits="userSpaceOnUse"><stop stop-color="#FFC398"/><stop offset=".399" stop-color="#F6B78B"/><stop offset="1" stop-color="#EBA87C"/></linearGradient><linearGradient id="j" x1="180.06" y1="25.747" x2="179.241" y2="28.834" gradientUnits="userSpaceOnUse"><stop stop-color="#7A2E1E"/><stop offset=".45" stop-color="#6A2417"/><stop offset="1" stop-color="#5B1B10"/></linearGradient><linearGradient id="k" x1="181.077" y1="26.089" x2="182.876" y2="26.919" gradientUnits="userSpaceOnUse"><stop stop-color="#FFC398"/><stop offset=".399" stop-color="#F6B78B"/><stop offset="1" stop-color="#EBA87C"/></linearGradient><linearGradient id="l" x1="181.48" y1="25.453" x2="180.879" y2="28.271" gradientUnits="userSpaceOnUse"><stop stop-color="#7A2E1E"/><stop offset=".45" stop-color="#6A2417"/><stop offset="1" stop-color="#5B1B10"/></linearGradient><linearGradient id="m" x1="165.152" y1="84.247" x2="148.85" y2="59.802" gradientUnits="userSpaceOnUse"><stop stop-color="#2309A5"/><stop offset="1" stop-color="#543AD0"/></linearGradient><linearGradient id="n" x1="75.26" y1="30.073" x2="146.656" y2="30.073" gradientUnits="userSpaceOnUse"><stop stop-color="#7795B2"/><stop offset="1" stop-color="#C2D3EB"/></linearGradient><linearGradient id="o" x1="88.289" y1="27.193" x2="102.311" y2="27.193" gradientUnits="userSpaceOnUse"><stop stop-color="#7795B2"/><stop offset="1" stop-color="#C2D3EB"/></linearGradient><linearGradient id="p" x1="101.372" y1="30.246" x2="115.344" y2="30.246" gradientUnits="userSpaceOnUse"><stop stop-color="#7795B2"/><stop offset="1" stop-color="#C2D3EB"/></linearGradient><linearGradient id="q" x1="116.475" y1="33.585" x2="130.008" y2="33.585" gradientUnits="userSpaceOnUse"><stop stop-color="#7795B2"/><stop offset="1" stop-color="#C2D3EB"/></linearGradient><linearGradient id="r" x1="89.888" y1="87.813" x2="97.853" y2="94.834" gradientUnits="userSpaceOnUse"><stop stop-color="#2409A5"/><stop offset="1" stop-color="#4F34CB"/></linearGradient><linearGradient id="s" x1="63.787" y1="29.122" x2="62.467" y2="29.515" gradientUnits="userSpaceOnUse"><stop stop-color="#FFC398"/><stop offset=".399" stop-color="#F6B78B"/><stop offset="1" stop-color="#EBA87C"/></linearGradient><linearGradient id="t" x1="62.972" y1="29.016" x2="61.54" y2="29.442" gradientUnits="userSpaceOnUse"><stop stop-color="#FFC398"/><stop offset=".399" stop-color="#F6B78B"/><stop offset="1" stop-color="#EBA87C"/></linearGradient><linearGradient id="u" x1="61.763" y1="28.78" x2="60.508" y2="28.756" gradientUnits="userSpaceOnUse"><stop stop-color="#FFC398"/><stop offset=".399" stop-color="#F6B78B"/><stop offset="1" stop-color="#EBA87C"/></linearGradient><linearGradient id="v" x1="60.674" y1="28.027" x2="58.851" y2="28.88" gradientUnits="userSpaceOnUse"><stop stop-color="#FFC398"/><stop offset=".399" stop-color="#F6B78B"/><stop offset="1" stop-color="#EBA87C"/></linearGradient><linearGradient id="w" x1="67.075" y1="85.986" x2="92.852" y2="68.537" gradientUnits="userSpaceOnUse"><stop stop-color="#2409A5"/><stop offset=".874" stop-color="#4B30C8"/></linearGradient><clipPath id="a"><path fill="#fff" d="M0 0h240v110H0z"/></clipPath></defs></svg>