<svg xmlns="http://www.w3.org/2000/svg" width="410" height="583" fill="none"><g clip-path="url(#a)"><path fill="url(#b)" d="M357-36H84v643h273V-36Z"/><path fill="url(#c)" d="M225.669-35.634 226.894 607h-2.895l-1.225-643 2.895.366Z" opacity=".3"/><path fill="#C2D3EB" d="m261.524 601.761-.111-111.392s-81.063-153.925-79.949-154.047l1.447-371.711h1.002l-1.447 371.711 79.838 153.681c0 .122.111.244.111.244l.112 111.27-1.003.244Z"/><path fill="url(#d)" d="M162.088-35.512v635.809l-1.336-.853V-35.512h1.336Z" opacity=".6"/><path fill="url(#e)" d="m288.248 594.57-1.781-629.96h1.447l1.782 629.107-1.448.853Z" opacity=".5"/><path fill="#C2D3EB" d="m314.416 580.555-1.114.487V-35.389h1.114v615.944Zm-186.847 5.725-1.113-.609V-34.661h1.113V586.28Z"/><path fill="#A7A3F3" d="M288.026 277.457c3.505 0 6.347-3.11 6.347-6.947 0-3.836-2.842-6.946-6.347-6.946-3.505 0-6.347 3.11-6.347 6.946 0 3.837 2.842 6.947 6.347 6.947Z"/><path fill="url(#f)" d="M359 533H86v74h273v-74Z"/><g filter="url(#g)"><path stroke="#2CD4D9" stroke-linecap="round" stroke-width="2" d="M314 31v15"/></g><g filter="url(#h)"><path stroke="#2CD4D9" stroke-linecap="round" stroke-width="2" d="M225 201v15"/></g><g filter="url(#i)"><path stroke="#2CD4D9" stroke-linecap="round" stroke-width="2" d="M288 351v15"/></g><g filter="url(#j)"><path stroke="#2CD4D9" stroke-linecap="round" stroke-width="2" d="M128 379v15"/></g><g filter="url(#k)"><path stroke="#2CD4D9" stroke-linecap="round" stroke-width="2" d="M126 136v15"/></g><path fill="url(#l)" d="m212.875 271.801-28.151 6.604c-4.467 1.048-8.857-1.746-9.885-6.129l-6.603-28.15c-1.048-4.467 1.746-8.857 6.129-9.885l28.15-6.603c4.467-1.048 8.857 1.746 9.885 6.128l6.603 28.15c1.132 4.448-1.661 8.838-6.128 9.885Z"/><path fill="url(#m)" d="m211.517 271.319-28.15 6.603c-4.467 1.048-8.857-1.746-9.885-6.128l-6.604-28.15c-1.048-4.467 1.746-8.857 6.129-9.885l28.15-6.604c4.467-1.048 8.857 1.746 9.885 6.129l6.603 28.15c1.028 4.383-1.661 8.837-6.128 9.885Z"/><path fill="url(#n)" d="M192.043 251.613a6.926 6.926 0 1 0-3.165-13.486 6.926 6.926 0 0 0 3.165 13.486Z"/><path fill="url(#o)" d="M192.043 251.612c-7.922 1.858-13.053 9.553-11.824 17.445.074.695.782 1.062 1.372.923l27.897-6.544c.675-.158 1.042-.866.819-1.437-2.324-7.635-10.257-12.265-18.264-10.387Z"/><path fill="url(#p)" d="M207.665 393.542h-48.788c-7.742 0-13.877-6.281-13.877-13.877v-48.788c0-7.742 6.281-13.877 13.877-13.877h48.788c7.742 0 13.877 6.281 13.877 13.877v48.788c0 7.596-6.281 13.877-13.877 13.877Z"/><path fill="url(#q)" d="M211.462 393.542h-48.788c-7.742 0-13.877-6.282-13.877-13.877v-48.788c0-7.742 6.281-13.877 13.877-13.877h48.788c7.742 0 13.877 6.281 13.877 13.877v48.788c0 7.595-6.281 13.877-13.877 13.877Z"/><path fill="#DFE9F8" d="M188.236 378.936c-12.416 0-22.495-10.079-22.495-22.495s10.079-22.495 22.495-22.495 22.495 10.079 22.495 22.495-10.079 22.495-22.495 22.495Zm0-42.215c-10.81 0-19.574 8.765-19.574 19.574 0 10.809 8.764 19.574 19.574 19.574 10.809 0 19.573-8.765 19.573-19.574.147-10.663-8.764-19.574-19.573-19.574Z"/><path fill="url(#r)" d="M188.237 333.944v-2.483c-13.731 0-24.979 11.102-24.979 24.979h2.484c0 12.416 10.079 22.495 22.495 22.495s22.495-10.079 22.495-22.495c0-12.417-10.079-22.496-22.495-22.496Zm0 42.069c-10.81 0-19.574-8.764-19.574-19.573h19.574v-19.72c10.809 0 19.573 8.764 19.573 19.573.146 10.956-8.764 19.72-19.573 19.72Z"/><path fill="url(#s)" d="m369.223 393.55-43.807 14.778c-6.598 2.244-13.723-1.319-15.966-7.916l-14.778-43.808c-2.244-6.597 1.319-13.723 7.916-15.966l43.808-14.778c6.597-2.243 13.723 1.319 15.966 7.917l14.778 43.807c2.243 6.598-1.319 13.723-7.917 15.966Z"/><path fill="url(#t)" d="m372.521 392.362-43.676 14.778c-6.597 2.243-13.722-1.319-15.965-7.917l-14.779-43.807c-2.243-6.598 1.32-13.723 7.917-15.966l43.807-14.778c6.598-2.244 13.723 1.319 15.966 7.916l14.779 43.808c2.111 6.729-1.452 13.854-8.049 15.966Z"/><path fill="url(#u)" d="m310.375 361.221 1.451 4.486 9.237 27.313c.264.924 1.319 1.32 2.111 1.056l45.127-15.174c.923-.264 1.319-1.32 1.055-2.111l-9.236-27.314-1.452-4.486c-1.319-3.959-5.673-6.07-9.5-4.75l-34.175 11.479c-3.827 1.32-5.938 5.542-4.618 9.501Zm5.278 5.014 41.96-14.119 8.181 24.147-41.96 14.118-8.181-24.146Z"/><path fill="url(#v)" d="M97.118 313.832 38.87 293.676c-9.246-3.143-14.053-13.128-10.91-22.374l20.155-58.431c3.144-9.246 13.129-14.053 22.374-10.91l58.432 20.155c9.245 3.144 14.053 13.129 10.91 22.374l-20.156 58.432c-3.328 9.245-13.313 14.053-22.558 10.91Z"/><path fill="url(#w)" d="M101.742 315.495 43.311 295.34c-9.246-3.143-14.053-13.128-10.91-22.374l20.155-58.432c3.144-9.245 13.129-14.053 22.374-10.909l58.432 20.155c9.245 3.143 14.053 13.129 10.91 22.374l-20.156 58.432c-3.143 9.245-13.128 14.053-22.374 10.909Z"/><path fill="url(#x)" d="M76.034 288.681c-.925-.37-1.85-.925-2.774-1.294-6.656-3.514-11.649-8.691-14.608-15.718-2.588-5.917-3.143-12.204-1.849-18.491 2.774-13.498 14.238-23.853 28.107-25.147 19.785-1.665 36.242 14.792 34.208 34.763-.185 1.664-.555 3.143-.925 4.807 0 .185 0 .37-.184.74-.37.924-.74 1.849-.925 2.774-.185.184-.185.369-.37.554-2.404 5.548-6.102 10.17-11.094 13.684-7.212 4.992-15.163 6.656-23.854 5.177-.924-.185-2.034-.37-2.958-.555a6.294 6.294 0 0 0-2.774-1.294Zm21.45-57.507c-15.533-5.362-32.36 2.774-37.722 18.306-5.362 15.533 2.774 32.359 18.121 37.722 15.533 5.362 32.544-2.774 37.907-18.306 5.362-15.348-2.774-32.36-18.306-37.722Z"/><path fill="url(#y)" d="M75.85 272.777v-9.245c0-6.842 0-13.869.185-20.71 0-.925 0-.925.925-.74.74.185 1.48.555 2.219.74.37.185.555 0 .74-.37.554-1.849.74-1.479-1.11-2.034-2.589-.74-5.177-1.664-7.951-2.589 5.917-4.438 12.574-6.472 19.785-5.547 9.06 1.109 15.903 5.917 20.71 13.868-.555-.185-.924-.185-1.109-.185-2.589-.37-4.623 1.295-5.178 4.068-.37 1.664 0 3.144.185 4.623.37 1.849.74 3.698.74 5.547-.185 2.774-1.295 5.363-2.774 7.767-2.589 3.698-5.362 7.211-7.951 10.724l-.185.185v-.739c0-9.616 0-19.046.185-28.661v-.37c0-.555.185-.74.74-.555.74.185 1.479.555 2.219.74.37.185.74 0 .74-.37.554-1.664.739-1.479-1.11-2.034-4.068-1.479-8.321-2.774-12.39-4.253-1.478-.555-1.294-.555-1.663.74-.37.924-.37.924.554 1.109.74.185 1.295.555 2.034.74.37.185.74.369.74.924 0 3.698.185 7.397.185 11.095 0 .185 0 .37-.185.555l-11.095 14.422c0 .37 0 .37-.184.555Z"/><path fill="url(#z)" d="M87.499 261.5c.185 8.506.37 16.642.37 24.963-5.917 0-11.28-1.664-16.088-5.178 5.363-6.656 10.355-13.128 15.718-19.785Z"/><path fill="url(#A)" d="M68.082 240.604c.184 12.759.554 25.148.74 37.722-3.144-1.479-7.397-10.725-7.952-16.642-.74-7.951 1.664-14.977 7.212-21.08Z"/><path fill="url(#B)" d="M92.491 285.907c1.11-1.48 2.219-2.774 3.144-4.068 4.252-5.363 8.69-10.91 12.943-16.272 2.404-3.144 4.438-6.472 5.732-10.171 1.665 3.514-.554 13.499-3.883 18.861-4.622 7.212-12.389 10.91-17.936 11.65Z"/><g opacity=".7"><path fill="url(#C)" d="m279.798 241.37 41.483 5.445c8.328 1.122 16.016-4.805 17.137-13.133l5.446-41.482c1.121-8.329-4.805-16.017-13.134-17.138l-41.482-5.445c-8.328-1.122-16.016 4.805-17.137 13.133l-5.446 41.482c-1.121 8.329 4.805 16.017 13.133 17.138Z"/><path fill="url(#D)" d="m276.273 240.889 41.482 5.446c8.328 1.121 16.016-4.805 17.137-13.133l5.446-41.483c1.121-8.328-4.805-16.016-13.133-17.137l-41.483-5.446c-8.328-1.121-16.016 4.805-17.137 13.134l-5.446 41.482a15.189 15.189 0 0 0 13.134 17.137Z"/><path fill="url(#E)" d="m322.082 233.682-44.205-5.766c-.801-.16-1.441-.961-1.281-1.762l5.606-43.404c.16-.801.961-1.442 1.762-1.282.8.161 1.441.961 1.281 1.762l-5.446 41.963 42.604 5.606c.801.16 1.441.961 1.281 1.762-.16.8-.801 1.281-1.602 1.121Z"/><path fill="url(#F)" d="m291.49 223.112-7.848-1.121 4.325-32.353 7.687.961-4.164 32.513Z"/><path fill="url(#G)" d="m303.18 224.554-7.848-.961 2.883-22.423 7.848 1.121-2.883 22.263Z"/><path fill="url(#H)" d="m314.872 225.994-7.848-.961 1.602-11.852 7.688.961-1.442 11.852Z"/></g><path fill="url(#I)" d="M49.649 483.321c4.965 0 9.752.71 14.362 2.13C71.104 461.486 93.18 444 119.422 444c31.916 0 57.804 25.918 57.804 57.872 0 2.219-.178 4.438-.355 6.569 15.604 4.26 27.129 18.551 27.129 35.504C204 564.271 187.51 583 167.296 583H49.737C22.254 583 .001 560.721.001 533.205c-.177-27.605 22.164-49.884 49.648-49.884Z"/><path fill="url(#J)" d="M111 419.988c0-9.961-8.18-18.041-18.263-18.041h-.06a6.258 6.258 0 0 0 .327-1.998c0-3.497-2.855-6.317-6.395-6.317-.773 0-1.487.147-2.171.382-1.339-9.05-9.251-16.014-18.8-16.014-6.84 0-12.82 3.555-16.15 8.903a13.591 13.591 0 0 0-1.547-.088c-6.128 0-11.185 4.584-11.81 10.46a21.643 21.643 0 0 0-8.625-1.763C15.608 395.512 6 405.032 6 416.756S15.637 438 27.506 438c.267 0 .505 0 .773-.029.327 0 .625.029.982.029h64.13c9.786-.323 17.609-8.286 17.609-18.012Z"/></g><path fill="url(#K)" d="M372.697 497.153a16.19 16.19 0 0 0 .366-3.409c0-10.716-8.655-19.361-19.383-19.361-5.973 0-11.459 2.8-14.994 7.062C328.933 455.509 303.821 437 274.32 437c-29.745 0-55.223 18.996-64.731 45.42-1.707-.122-3.414-.244-5.12-.244-27.795 0-50.469 22.527-50.469 50.412 0 20.335 12.069 37.748 29.379 45.785 4.876 2.557 10.728 4.262 17.554 4.505 1.219.122 2.317.122 3.536.122.975 0 1.95 0 2.925-.122h95.817c2.073-.122 56.564.122 65.219.122 22.919 0 41.57-21.431 41.57-44.324 0-21.674-16.335-39.331-37.303-41.523Z"/><path fill="url(#L)" d="M371.997 73.231c-.282-20.42-16.991-37.098-37.645-37.576a38.67 38.67 0 0 0-13.971 2.23c-.443.159-.885.198-1.328.198C313.134 19.494 295.54 6 274.765 6c-17.594 0-32.894 9.673-40.745 23.923-1.489-1.791-3.784-2.906-6.321-2.906-3.704 0-6.844 2.428-7.851 5.812a18.469 18.469 0 0 0-11.434-3.94c-10.227 0-18.52 8.2-18.52 18.31 0 2.229.402 4.339 1.127 6.289-8.536 4.697-14.293 13.813-14.011 24.242.322 14.29 12.078 25.953 26.492 26.351 4.55.119 8.898-.836 12.682-2.707 9.422 20.978 30.68 35.626 55.4 35.626 21.057 0 39.577-10.588 50.448-26.71 3.583 1.115 7.408 1.672 11.394 1.672 21.459-.039 38.852-17.434 38.571-38.73Z"/><path fill="url(#M)" d="M409.997 56.967c-.238-17.303-14.376-31.435-31.853-31.84a32.673 32.673 0 0 0-11.821 1.89c-.375.134-.75.168-1.125.168C360.191 11.434 345.303 0 327.724 0c-14.887 0-27.833 8.196-34.476 20.27-1.261-1.517-3.202-2.461-5.349-2.461a6.91 6.91 0 0 0-6.643 4.924 15.614 15.614 0 0 0-9.675-3.34c-8.653 0-15.671 6.949-15.671 15.516 0 1.889.341 3.676.954 5.329-7.222 3.98-12.094 11.704-11.856 20.54.273 12.109 10.221 21.991 22.417 22.329 3.849.1 7.529-.709 10.731-2.294C286.128 98.588 304.115 111 325.033 111c17.817 0 33.488-8.972 42.686-22.632 3.032.945 6.269 1.417 9.642 1.417 18.157-.034 32.875-14.773 32.636-32.818Z"/><path fill="url(#N)" d="M77.002 50.137c.185-13.406 11.153-24.355 24.71-24.669a25.38 25.38 0 0 1 9.171 1.464c.291.104.581.13.872.13C115.64 14.86 127.189 6 140.826 6c11.549 0 21.592 6.35 26.745 15.705.978-1.176 2.485-1.907 4.15-1.907a5.36 5.36 0 0 1 5.153 3.815 12.123 12.123 0 0 1 7.506-2.587c6.712 0 12.157 5.383 12.157 12.02a11.83 11.83 0 0 1-.74 4.13c5.602 3.083 9.381 9.067 9.196 15.914-.211 9.381-7.928 17.038-17.389 17.299-2.987.078-5.841-.549-8.325-1.777C173.095 82.384 159.141 92 142.914 92c-13.822 0-25.979-6.951-33.115-17.534-2.352.731-4.862 1.097-7.479 1.097-14.086-.026-25.503-11.446-25.318-25.426Z"/><path fill="url(#O)" d="M89 115.094c0-5.479-4.44-9.923-9.915-9.923h-.032c.113-.339.178-.711.178-1.099a3.468 3.468 0 0 0-3.472-3.475c-.42 0-.807.081-1.178.211C73.853 95.83 69.558 92 64.374 92c-3.714 0-6.96 1.955-8.768 4.897a7.296 7.296 0 0 0-.84-.049 6.445 6.445 0 0 0-6.41 5.753 11.623 11.623 0 0 0-4.682-.969c-6.46 0-11.675 5.236-11.675 11.684C32 119.764 37.232 125 43.675 125c.145 0 .274 0 .42-.016.177 0 .338.016.532.016h34.814c5.312-.178 9.559-4.557 9.559-9.906Z"/><defs><linearGradient id="b" x1="220.552" x2="220.552" y1="607" y2="-35.989" gradientUnits="userSpaceOnUse"><stop stop-color="#C2D3EB" stop-opacity="0"/><stop offset=".51" stop-color="#fff"/><stop offset="1" stop-color="#C2D3EB" stop-opacity="0"/></linearGradient><linearGradient id="c" x1="224.764" x2="224.798" y1="607.045" y2="-35.946" gradientUnits="userSpaceOnUse"><stop stop-color="#5333ED"/><stop offset="1" stop-color="#37A7DF"/></linearGradient><linearGradient id="d" x1="45.911" x2="312.434" y1="537.347" y2="46.047" gradientUnits="userSpaceOnUse"><stop stop-color="#5333ED"/><stop offset="1" stop-color="#5333ED" stop-opacity="0"/></linearGradient><linearGradient id="e" x1="154.831" x2="455.343" y1="60.468" y2="473.185" gradientUnits="userSpaceOnUse"><stop stop-color="#5333ED" stop-opacity="0"/><stop offset="1" stop-color="#5333ED"/></linearGradient><linearGradient id="f" x1="222.552" x2="222.54" y1="607" y2="533" gradientUnits="userSpaceOnUse"><stop stop-color="#FAFAFA"/><stop offset="1" stop-color="#F4F7FB" stop-opacity=".338"/><stop offset="1" stop-color="#F4F7FB" stop-opacity="0"/></linearGradient><linearGradient id="l" x1="199.867" x2="186.093" y1="270.774" y2="231.214" gradientUnits="userSpaceOnUse"><stop stop-color="#A3B9D8"/><stop offset="1" stop-color="#D0DDF1"/></linearGradient><linearGradient id="m" x1="172.218" x2="218.698" y1="235.553" y2="274.622" gradientUnits="userSpaceOnUse"><stop stop-color="#DFE9F8"/><stop offset="1" stop-color="#C2D3EB"/></linearGradient><linearGradient id="n" x1="185.793" x2="195.22" y1="239.88" y2="249.918" gradientUnits="userSpaceOnUse"><stop stop-color="#9BB3CE"/><stop offset="1" stop-color="#B5C8E1"/></linearGradient><linearGradient id="o" x1="185.891" x2="201.562" y1="254.533" y2="271.219" gradientUnits="userSpaceOnUse"><stop stop-color="#9BB3CE"/><stop offset="1" stop-color="#B5C8E1"/></linearGradient><linearGradient id="p" x1="152.782" x2="216.501" y1="319.599" y2="394.035" gradientUnits="userSpaceOnUse"><stop stop-color="#A3B9D8"/><stop offset="1" stop-color="#D0DDF1"/></linearGradient><linearGradient id="q" x1="160.522" x2="221.82" y1="319.645" y2="401.736" gradientUnits="userSpaceOnUse"><stop stop-color="#DFE9F8"/><stop offset="1" stop-color="#C2D3EB"/></linearGradient><linearGradient id="r" x1="175.8" x2="199.503" y1="334.83" y2="375.884" gradientUnits="userSpaceOnUse"><stop stop-color="#9BB3CE"/><stop offset="1" stop-color="#B5C8E1"/></linearGradient><linearGradient id="s" x1="298.368" x2="376.995" y1="344.781" y2="391.547" gradientUnits="userSpaceOnUse"><stop stop-color="#A3B9D8"/><stop offset="1" stop-color="#D0DDF1"/></linearGradient><linearGradient id="t" x1="305.233" x2="384.002" y1="342.514" y2="396.776" gradientUnits="userSpaceOnUse"><stop stop-color="#DFE9F8"/><stop offset="1" stop-color="#C2D3EB"/></linearGradient><linearGradient id="u" x1="326.173" x2="351.371" y1="345.113" y2="388.757" gradientUnits="userSpaceOnUse"><stop stop-color="#9BB3CE"/><stop offset="1" stop-color="#B5C8E1"/></linearGradient><linearGradient id="v" x1="32.931" x2="139.684" y1="227.602" y2="291.097" gradientUnits="userSpaceOnUse"><stop stop-color="#A3B9D8"/><stop offset="1" stop-color="#D0DDF1"/></linearGradient><linearGradient id="w" x1="49.116" x2="140.247" y1="206.594" y2="328.637" gradientUnits="userSpaceOnUse"><stop stop-color="#DFE9F8"/><stop offset="1" stop-color="#C2D3EB"/></linearGradient><linearGradient id="x" x1="74.64" x2="107.326" y1="224.622" y2="276.08" gradientUnits="userSpaceOnUse"><stop stop-color="#9BB3CE"/><stop offset="1" stop-color="#B5C8E1"/></linearGradient><linearGradient id="y" x1="82.725" x2="108.277" y1="229.622" y2="264.405" gradientUnits="userSpaceOnUse"><stop stop-color="#9BB3CE"/><stop offset="1" stop-color="#B5C8E1"/></linearGradient><linearGradient id="z" x1="76.496" x2="90.772" y1="260.198" y2="274.677" gradientUnits="userSpaceOnUse"><stop stop-color="#9BB3CE"/><stop offset="1" stop-color="#B5C8E1"/></linearGradient><linearGradient id="A" x1="63.108" x2="76.172" y1="238.638" y2="243.042" gradientUnits="userSpaceOnUse"><stop stop-color="#9BB3CE"/><stop offset="1" stop-color="#B5C8E1"/></linearGradient><linearGradient id="B" x1="99.051" x2="116.322" y1="253.806" y2="273.748" gradientUnits="userSpaceOnUse"><stop stop-color="#9BB3CE"/><stop offset="1" stop-color="#B5C8E1"/></linearGradient><linearGradient id="C" x1="337.54" x2="270.008" y1="179.116" y2="239.834" gradientUnits="userSpaceOnUse"><stop stop-color="#A3B9D8"/><stop offset="1" stop-color="#D0DDF1"/></linearGradient><linearGradient id="D" x1="330.337" x2="264.083" y1="178.16" y2="246.233" gradientUnits="userSpaceOnUse"><stop stop-color="#DFE9F8"/><stop offset="1" stop-color="#C2D3EB"/></linearGradient><linearGradient id="E" x1="275.258" x2="307.749" y1="186.085" y2="242.361" gradientUnits="userSpaceOnUse"><stop stop-color="#9BB3CE"/><stop offset="1" stop-color="#B5C8E1"/></linearGradient><linearGradient id="F" x1="282.015" x2="297.406" y1="192.982" y2="219.64" gradientUnits="userSpaceOnUse"><stop stop-color="#9BB3CE"/><stop offset="1" stop-color="#B5C8E1"/></linearGradient><linearGradient id="G" x1="295.001" x2="306.337" y1="203.068" y2="222.702" gradientUnits="userSpaceOnUse"><stop stop-color="#9BB3CE"/><stop offset="1" stop-color="#B5C8E1"/></linearGradient><linearGradient id="H" x1="308.163" x2="315.265" y1="213.444" y2="225.745" gradientUnits="userSpaceOnUse"><stop stop-color="#9BB3CE"/><stop offset="1" stop-color="#B5C8E1"/></linearGradient><linearGradient id="I" x1="111.019" x2="84.771" y1="585.854" y2="452.01" gradientUnits="userSpaceOnUse"><stop stop-color="#FAFAFA"/><stop offset="1" stop-color="#D1DFF2"/></linearGradient><linearGradient id="J" x1="54.858" x2="66.735" y1="435.439" y2="377.952" gradientUnits="userSpaceOnUse"><stop offset=".183" stop-color="#fff" stop-opacity=".28"/><stop offset=".425" stop-color="#F6F9FD"/><stop offset=".813" stop-color="#DFE9F6"/><stop offset="1" stop-color="#D1DFF2"/></linearGradient><linearGradient id="K" x1="286.426" x2="273.383" y1="581.102" y2="448.035" gradientUnits="userSpaceOnUse"><stop offset=".18" stop-color="#FAFAFA"/><stop offset=".421" stop-color="#F7F9FD"/><stop offset=".803" stop-color="#E0E9F6"/><stop offset="1" stop-color="#D1DFF2"/></linearGradient><linearGradient id="L" x1="296.292" x2="245.566" y1="133.094" y2="-6.507" gradientUnits="userSpaceOnUse"><stop offset=".115" stop-color="#FAFAFA"/><stop offset="1" stop-color="#D1DFF2"/></linearGradient><linearGradient id="M" x1="345.939" x2="302.912" y1="107.691" y2="-10.56" gradientUnits="userSpaceOnUse"><stop offset=".115" stop-color="#FAFAFA"/><stop offset="1" stop-color="#D1DFF2"/></linearGradient><linearGradient id="N" x1="126.696" x2="159.999" y1="89.436" y2="-2.208" gradientUnits="userSpaceOnUse"><stop offset=".115" stop-color="#FAFAFA"/><stop offset="1" stop-color="#D1DFF2"/></linearGradient><linearGradient id="O" x1="58.523" x2="65.134" y1="123.591" y2="92.008" gradientUnits="userSpaceOnUse"><stop offset=".183" stop-color="#fff" stop-opacity=".28"/><stop offset=".425" stop-color="#F6F9FD"/><stop offset=".813" stop-color="#DFE9F6"/><stop offset="1" stop-color="#D1DFF2"/></linearGradient><filter id="g" width="12" height="27" x="308" y="25" color-interpolation-filters="sRGB" filterUnits="userSpaceOnUse"><feFlood flood-opacity="0" result="BackgroundImageFix"/><feColorMatrix in="SourceAlpha" result="hardAlpha" values="0 0 0 0 0 0 0 0 0 0 0 0 0 0 0 0 0 0 127 0"/><feOffset/><feGaussianBlur stdDeviation="2.5"/><feComposite in2="hardAlpha" operator="out"/><feColorMatrix values="0 0 0 0 0.172549 0 0 0 0 0.831373 0 0 0 0 0.85098 0 0 0 1 0"/><feBlend in2="BackgroundImageFix" result="effect1_dropShadow_1168_50677"/><feColorMatrix in="SourceAlpha" result="hardAlpha" values="0 0 0 0 0 0 0 0 0 0 0 0 0 0 0 0 0 0 127 0"/><feOffset/><feGaussianBlur stdDeviation="2.5"/><feComposite in2="hardAlpha" operator="out"/><feColorMatrix values="0 0 0 0 0.172549 0 0 0 0 0.831373 0 0 0 0 0.85098 0 0 0 1 0"/><feBlend in2="effect1_dropShadow_1168_50677" result="effect2_dropShadow_1168_50677"/><feColorMatrix in="SourceAlpha" result="hardAlpha" values="0 0 0 0 0 0 0 0 0 0 0 0 0 0 0 0 0 0 127 0"/><feOffset/><feGaussianBlur stdDeviation="2.5"/><feComposite in2="hardAlpha" operator="out"/><feColorMatrix values="0 0 0 0 0.172549 0 0 0 0 0.831373 0 0 0 0 0.85098 0 0 0 1 0"/><feBlend in2="effect2_dropShadow_1168_50677" result="effect3_dropShadow_1168_50677"/><feBlend in="SourceGraphic" in2="effect3_dropShadow_1168_50677" result="shape"/></filter><filter id="h" width="12" height="27" x="219" y="195" color-interpolation-filters="sRGB" filterUnits="userSpaceOnUse"><feFlood flood-opacity="0" result="BackgroundImageFix"/><feColorMatrix in="SourceAlpha" result="hardAlpha" values="0 0 0 0 0 0 0 0 0 0 0 0 0 0 0 0 0 0 127 0"/><feOffset/><feGaussianBlur stdDeviation="2.5"/><feComposite in2="hardAlpha" operator="out"/><feColorMatrix values="0 0 0 0 0.172549 0 0 0 0 0.831373 0 0 0 0 0.85098 0 0 0 1 0"/><feBlend in2="BackgroundImageFix" result="effect1_dropShadow_1168_50677"/><feColorMatrix in="SourceAlpha" result="hardAlpha" values="0 0 0 0 0 0 0 0 0 0 0 0 0 0 0 0 0 0 127 0"/><feOffset/><feGaussianBlur stdDeviation="2.5"/><feComposite in2="hardAlpha" operator="out"/><feColorMatrix values="0 0 0 0 0.172549 0 0 0 0 0.831373 0 0 0 0 0.85098 0 0 0 1 0"/><feBlend in2="effect1_dropShadow_1168_50677" result="effect2_dropShadow_1168_50677"/><feColorMatrix in="SourceAlpha" result="hardAlpha" values="0 0 0 0 0 0 0 0 0 0 0 0 0 0 0 0 0 0 127 0"/><feOffset/><feGaussianBlur stdDeviation="2.5"/><feComposite in2="hardAlpha" operator="out"/><feColorMatrix values="0 0 0 0 0.172549 0 0 0 0 0.831373 0 0 0 0 0.85098 0 0 0 1 0"/><feBlend in2="effect2_dropShadow_1168_50677" result="effect3_dropShadow_1168_50677"/><feBlend in="SourceGraphic" in2="effect3_dropShadow_1168_50677" result="shape"/></filter><filter id="i" width="12" height="27" x="282" y="345" color-interpolation-filters="sRGB" filterUnits="userSpaceOnUse"><feFlood flood-opacity="0" result="BackgroundImageFix"/><feColorMatrix in="SourceAlpha" result="hardAlpha" values="0 0 0 0 0 0 0 0 0 0 0 0 0 0 0 0 0 0 127 0"/><feOffset/><feGaussianBlur stdDeviation="2.5"/><feComposite in2="hardAlpha" operator="out"/><feColorMatrix values="0 0 0 0 0.172549 0 0 0 0 0.831373 0 0 0 0 0.85098 0 0 0 1 0"/><feBlend in2="BackgroundImageFix" result="effect1_dropShadow_1168_50677"/><feColorMatrix in="SourceAlpha" result="hardAlpha" values="0 0 0 0 0 0 0 0 0 0 0 0 0 0 0 0 0 0 127 0"/><feOffset/><feGaussianBlur stdDeviation="2.5"/><feComposite in2="hardAlpha" operator="out"/><feColorMatrix values="0 0 0 0 0.172549 0 0 0 0 0.831373 0 0 0 0 0.85098 0 0 0 1 0"/><feBlend in2="effect1_dropShadow_1168_50677" result="effect2_dropShadow_1168_50677"/><feColorMatrix in="SourceAlpha" result="hardAlpha" values="0 0 0 0 0 0 0 0 0 0 0 0 0 0 0 0 0 0 127 0"/><feOffset/><feGaussianBlur stdDeviation="2.5"/><feComposite in2="hardAlpha" operator="out"/><feColorMatrix values="0 0 0 0 0.172549 0 0 0 0 0.831373 0 0 0 0 0.85098 0 0 0 1 0"/><feBlend in2="effect2_dropShadow_1168_50677" result="effect3_dropShadow_1168_50677"/><feBlend in="SourceGraphic" in2="effect3_dropShadow_1168_50677" result="shape"/></filter><filter id="j" width="12" height="27" x="122" y="373" color-interpolation-filters="sRGB" filterUnits="userSpaceOnUse"><feFlood flood-opacity="0" result="BackgroundImageFix"/><feColorMatrix in="SourceAlpha" result="hardAlpha" values="0 0 0 0 0 0 0 0 0 0 0 0 0 0 0 0 0 0 127 0"/><feOffset/><feGaussianBlur stdDeviation="2.5"/><feComposite in2="hardAlpha" operator="out"/><feColorMatrix values="0 0 0 0 0.172549 0 0 0 0 0.831373 0 0 0 0 0.85098 0 0 0 1 0"/><feBlend in2="BackgroundImageFix" result="effect1_dropShadow_1168_50677"/><feColorMatrix in="SourceAlpha" result="hardAlpha" values="0 0 0 0 0 0 0 0 0 0 0 0 0 0 0 0 0 0 127 0"/><feOffset/><feGaussianBlur stdDeviation="2.5"/><feComposite in2="hardAlpha" operator="out"/><feColorMatrix values="0 0 0 0 0.172549 0 0 0 0 0.831373 0 0 0 0 0.85098 0 0 0 1 0"/><feBlend in2="effect1_dropShadow_1168_50677" result="effect2_dropShadow_1168_50677"/><feColorMatrix in="SourceAlpha" result="hardAlpha" values="0 0 0 0 0 0 0 0 0 0 0 0 0 0 0 0 0 0 127 0"/><feOffset/><feGaussianBlur stdDeviation="2.5"/><feComposite in2="hardAlpha" operator="out"/><feColorMatrix values="0 0 0 0 0.172549 0 0 0 0 0.831373 0 0 0 0 0.85098 0 0 0 1 0"/><feBlend in2="effect2_dropShadow_1168_50677" result="effect3_dropShadow_1168_50677"/><feBlend in="SourceGraphic" in2="effect3_dropShadow_1168_50677" result="shape"/></filter><filter id="k" width="12" height="27" x="120" y="130" color-interpolation-filters="sRGB" filterUnits="userSpaceOnUse"><feFlood flood-opacity="0" result="BackgroundImageFix"/><feColorMatrix in="SourceAlpha" result="hardAlpha" values="0 0 0 0 0 0 0 0 0 0 0 0 0 0 0 0 0 0 127 0"/><feOffset/><feGaussianBlur stdDeviation="2.5"/><feComposite in2="hardAlpha" operator="out"/><feColorMatrix values="0 0 0 0 0.172549 0 0 0 0 0.831373 0 0 0 0 0.85098 0 0 0 1 0"/><feBlend in2="BackgroundImageFix" result="effect1_dropShadow_1168_50677"/><feColorMatrix in="SourceAlpha" result="hardAlpha" values="0 0 0 0 0 0 0 0 0 0 0 0 0 0 0 0 0 0 127 0"/><feOffset/><feGaussianBlur stdDeviation="2.5"/><feComposite in2="hardAlpha" operator="out"/><feColorMatrix values="0 0 0 0 0.172549 0 0 0 0 0.831373 0 0 0 0 0.85098 0 0 0 1 0"/><feBlend in2="effect1_dropShadow_1168_50677" result="effect2_dropShadow_1168_50677"/><feColorMatrix in="SourceAlpha" result="hardAlpha" values="0 0 0 0 0 0 0 0 0 0 0 0 0 0 0 0 0 0 127 0"/><feOffset/><feGaussianBlur stdDeviation="2.5"/><feComposite in2="hardAlpha" operator="out"/><feColorMatrix values="0 0 0 0 0.172549 0 0 0 0 0.831373 0 0 0 0 0.85098 0 0 0 1 0"/><feBlend in2="effect2_dropShadow_1168_50677" result="effect3_dropShadow_1168_50677"/><feBlend in="SourceGraphic" in2="effect3_dropShadow_1168_50677" result="shape"/></filter><clipPath id="a"><path fill="#fff" d="M0 49h370v532H0z"/></clipPath></defs></svg>
