<svg width="241" height="110" fill="none" xmlns="http://www.w3.org/2000/svg"><path d="M146.281 100.392H89.94L70.598 55.656c-5.491-13.415 4.367-28.14 18.905-28.14h57.277c14.538 0 24.396 14.725 18.906 28.14l-19.405 44.736Z" fill="url(#a)"/><path d="M117.393 41.367a8.362 8.362 0 0 1-8.361-8.36V20.902h16.722V33.07c0 4.555-3.744 8.298-8.361 8.298Z" fill="#EBA87C"/><path d="M109.032 31.447v-9.11l16.722-.499v6.427s-6.302 7.674-16.722 3.182Z" fill="#E08C5C"/><path d="M129.497 21.463a3.12 3.12 0 1 0 0-6.24 3.12 3.12 0 0 0 0 6.24ZM103.916 21.463a3.12 3.12 0 1 0 0-6.24 3.12 3.12 0 0 0 0 6.24Z" fill="#EBA87C"/><path d="M116.582 29.887c7.512 0 13.602-6.09 13.602-13.602 0-7.512-6.09-13.602-13.602-13.602-7.512 0-13.602 6.09-13.602 13.602 0 7.512 6.09 13.602 13.602 13.602Z" fill="#EBA87C"/><path d="M116.582 2.247c-7.362 0-13.415 5.74-13.976 12.978l-.063 1.06c2.122-1.06 3.307-4.243 3.307-7.362 0 0 6.115 8.485 24.646 6.302-.437-7.238-6.489-12.978-13.914-12.978Z" fill="#5B3427"/><path d="M130.246 13.352C129.747 6.24 123.757.686 116.582.686c-7.113 0-13.165 5.553-13.664 12.666l-.624-.062C102.855 5.865 109.095 0 116.582 0s13.726 5.803 14.288 13.29l-.624.062Z" fill="#fff"/><path d="m162.878 37.249-9.172 18.656s7.55 6.364 10.42 13.352c.811 1.56 1.31 3.307 1.185 5.179-.187 5.615-4.929 9.983-10.544 9.795-6.801-.25-13.353-7.55-16.847-10.232-22.212-16.909-36.375 2.683-36.375 2.683-2.808 4.055-3.307 8.61-3.307 12.229 0 3.556 3.244-.686 9.983-2.37 0 0-.125-2.497 3.057-3.557 4.68-1.56 10.982-2.184 18.469 7.05 6.676 8.174 23.522 19.217 40.556 11.293 9.484-4.43 15.037-14.038 16.659-22.212 3.244-16.41-6.364-34.254-24.084-41.866Z" fill="#EBA87C"/><path d="m163.003 70.755 25.019-11.668c-5.49-12.292-20.402-29.388-37.623-31.384l-6.427 23.585c0 .062 15.536 9.608 19.031 19.467Z" fill="#F0F5FC"/><path d="m98.363 87.476-1.685 7.487c-.062.437.187.873.624.998s.873-.062 1.06-.499l2.621-6.052-2.62-1.934Z" fill="url(#b)"/><path d="m99.236 88.1 1.81 3.432a1.516 1.516 0 0 0 1.934.686l.187-.062c.624-.25.998-.999.873-1.685l-.499-2.496-4.305.125Z" fill="url(#c)"/><path d="m101.42 86.727 2.184 4.617c.312.687 1.123 1.061 1.872.75l.561-.188c.687-.25 1.061-.874.749-1.872l-.686-2.683-4.68-.624Z" fill="url(#d)"/><path d="m109.968 90.47-.998-.56-.811-3.37-3.37.562 1.872 3.494c.25.436.624.748 1.061.873l1.684.437c.375.125.749-.063.936-.375.187-.311.063-.873-.374-1.06Z" fill="url(#e)"/><path d="m74.466 37.249 9.172 18.656s-7.55 6.364-10.42 13.352c-.811 1.56-1.31 3.307-1.185 5.179.187 5.615 4.929 9.983 10.544 9.795 6.801-.25 13.352-7.55 16.846-10.232 22.213-16.909 36.376 2.683 36.376 2.683 2.808 4.055 3.307 8.61 3.307 12.229 0 3.556-3.245-.686-9.983-2.37 0 0 .125-2.497-3.057-3.557-4.68-1.56-10.982-2.184-18.469 7.05-6.676 8.174-23.522 19.217-40.556 11.293-9.484-4.43-15.037-14.038-16.66-22.212-3.243-16.41 6.365-34.254 24.085-41.866Z" fill="#EBA87C"/><path d="m74.341 70.755-25.02-11.668c5.49-12.292 20.403-29.388 37.624-31.384l6.426 23.585c0 .062-15.473 9.608-19.03 19.467Z" fill="#F0F5FC"/><path d="m138.981 87.476 1.685 7.487c.062.437-.188.873-.624.998-.437.125-.874-.062-1.061-.499l-2.621-6.052 2.621-1.934Z" fill="url(#f)"/><path d="m138.108 88.1-1.81 3.432a1.516 1.516 0 0 1-1.934.686l-.187-.062c-.624-.25-.999-.999-.874-1.685l.499-2.496 4.306.125Z" fill="url(#g)"/><path d="m135.924 86.727-2.184 4.617c-.312.687-1.123 1.061-1.872.75l-.561-.188c-.687-.25-1.061-.874-.749-1.872l.686-2.683 4.68-.624Z" fill="url(#h)"/><path d="m127.376 90.47.998-.56.811-3.37 3.37.562-1.872 3.494c-.25.436-.624.748-1.061.873l-1.685.437c-.374.125-.748-.063-.935-.375-.188-.311-.063-.873.374-1.06Z" fill="url(#i)"/><path d="M143.474 74.623H91.312v33.256h52.162V74.623Z" fill="url(#j)"/><path d="M143.474 107.879H91.312V110h52.162v-2.121Z" fill="url(#k)"/><path d="M117.393 95.15a3.806 3.806 0 1 0 0-7.611 3.806 3.806 0 0 0 0 7.612Z" fill="#C2D3EB"/><path d="M130.558 18.344c0 7.487-5.803 13.727-13.29 14.288l-.062-.624c7.113-.499 12.666-6.489 12.666-13.664h.686Z" fill="url(#l)"/><path d="M117.268 33.817c1.103 0 1.997-.698 1.997-1.56 0-.861-.894-1.56-1.997-1.56-1.103 0-1.996.699-1.996 1.56 0 .862.893 1.56 1.996 1.56Z" fill="url(#m)"/><path d="M101.545 21.837c-1.373-.25-2.433-1.435-2.433-2.807v-5.366c0-1.435.998-2.62 2.433-2.808v10.981Z" fill="#fff"/><path d="m103.666 22.961-2.371-.499V10.108l2.371-.437v13.29Z" fill="#AEBFD8"/><path d="M131.619 21.837c1.372-.25 2.433-1.435 2.433-2.807v-5.366c0-1.435-.998-2.62-2.433-2.808v10.981Z" fill="#fff"/><path d="m129.497 22.961 2.434-.499V10.108l-2.434-.437v13.29Z" fill="#AEBFD8"/><defs><linearGradient id="a" x1="118.117" y1="44.836" x2="118.117" y2="97.884" gradientUnits="userSpaceOnUse"><stop offset=".173" stop-color="#F0F5FC"/><stop offset=".547" stop-color="#E8EFF9"/><stop offset="1" stop-color="#D7E3F4"/></linearGradient><linearGradient id="b" x1="97.389" y1="91.208" x2="100.25" y2="93.646" gradientUnits="userSpaceOnUse"><stop stop-color="#EBA87C"/><stop offset=".462" stop-color="#E5996B"/><stop offset="1" stop-color="#E08C5C"/></linearGradient><linearGradient id="c" x1="101.504" y1="89.681" x2="104.133" y2="90.505" gradientUnits="userSpaceOnUse"><stop stop-color="#EBA87C"/><stop offset=".462" stop-color="#E5996B"/><stop offset="1" stop-color="#E08C5C"/></linearGradient><linearGradient id="d" x1="104.377" y1="89.465" x2="107.163" y2="89.451" gradientUnits="userSpaceOnUse"><stop stop-color="#EBA87C"/><stop offset=".462" stop-color="#E5996B"/><stop offset="1" stop-color="#E08C5C"/></linearGradient><linearGradient id="e" x1="107.404" y1="88.652" x2="110.554" y2="91.318" gradientUnits="userSpaceOnUse"><stop stop-color="#EBA87C"/><stop offset=".462" stop-color="#E5996B"/><stop offset="1" stop-color="#E08C5C"/></linearGradient><linearGradient id="f" x1="139.957" y1="91.208" x2="137.096" y2="93.646" gradientUnits="userSpaceOnUse"><stop stop-color="#EBA87C"/><stop offset=".462" stop-color="#E5996B"/><stop offset="1" stop-color="#E08C5C"/></linearGradient><linearGradient id="g" x1="135.841" y1="89.682" x2="133.212" y2="90.505" gradientUnits="userSpaceOnUse"><stop stop-color="#EBA87C"/><stop offset=".462" stop-color="#E5996B"/><stop offset="1" stop-color="#E08C5C"/></linearGradient><linearGradient id="h" x1="132.969" y1="89.465" x2="130.183" y2="89.451" gradientUnits="userSpaceOnUse"><stop stop-color="#EBA87C"/><stop offset=".462" stop-color="#E5996B"/><stop offset="1" stop-color="#E08C5C"/></linearGradient><linearGradient id="i" x1="129.942" y1="88.653" x2="126.792" y2="91.318" gradientUnits="userSpaceOnUse"><stop stop-color="#EBA87C"/><stop offset=".462" stop-color="#E5996B"/><stop offset="1" stop-color="#E08C5C"/></linearGradient><linearGradient id="j" x1="124.921" y1="67.566" x2="87.638" y2="103.218" gradientUnits="userSpaceOnUse"><stop stop-color="#9BB3CE"/><stop offset="1" stop-color="#B5C8E1"/></linearGradient><linearGradient id="k" x1="124.921" y1="107.429" x2="124.604" y2="112.169" gradientUnits="userSpaceOnUse"><stop stop-color="#9BB3CE"/><stop offset="1" stop-color="#B5C8E1"/></linearGradient><linearGradient id="l" x1="130.576" y1="25.513" x2="117.256" y2="25.513" gradientUnits="userSpaceOnUse"><stop offset=".173" stop-color="#fff"/><stop offset=".493" stop-color="#E8EFF9"/><stop offset=".999" stop-color="#D1DFF2"/><stop offset="1" stop-color="#D1DFF2"/></linearGradient><linearGradient id="m" x1="119.267" y1="32.26" x2="115.245" y2="32.26" gradientUnits="userSpaceOnUse"><stop offset=".173" stop-color="#F0F5FC"/><stop offset=".493" stop-color="#E8EFF9"/><stop offset=".999" stop-color="#D1DFF2"/><stop offset="1" stop-color="#D1DFF2"/></linearGradient></defs></svg>