<svg width="40" height="40" fill="none" xmlns="http://www.w3.org/2000/svg"><path fill-rule="evenodd" clip-rule="evenodd" d="M5 4.055C5 2.92 5.92 2 7.056 2h22.61c1.136 0 2.056.92 2.056 2.055v12.332a2.055 2.055 0 0 1-4.11 0V6.111h-18.5v26.033h4.796a2.055 2.055 0 1 1 0 4.11H7.056A2.055 2.055 0 0 1 5 34.2V4.055Z" fill="#2CD4D9" style="mix-blend-mode:multiply"/><path fill-rule="evenodd" clip-rule="evenodd" d="M24.186 11.592c0 1.135-.92 2.055-2.056 2.055h-8.907a2.055 2.055 0 1 1 0-4.11h8.907c1.135 0 2.056.92 2.056 2.055ZM19.39 17.072c0 1.135-.921 2.055-2.056 2.055h-4.112a2.055 2.055 0 1 1 0-4.11h4.112c1.135 0 2.055.92 2.055 2.055ZM28.791 21.825a2.056 2.056 0 0 1 2.905-.124c.394.362.757.757 1.084 1.181a2.055 2.055 0 1 1-3.256 2.51 5.25 5.25 0 0 0-.608-.663 2.055 2.055 0 0 1-.125-2.904Z" fill="#5333ED"/><path fill-rule="evenodd" clip-rule="evenodd" d="M28.926 24.74a5.204 5.204 0 0 0-8.088 6.296 2.055 2.055 0 1 1-3.632 1.926 9.316 9.316 0 0 1 14.479-11.27 2.055 2.055 0 1 1-2.759 3.047Z" fill="#5333ED"/><path fill-rule="evenodd" clip-rule="evenodd" d="M18.047 30.19c1-.539 2.246-.166 2.785.833.142.264.308.516.493.752a2.055 2.055 0 1 1-3.231 2.541 9.344 9.344 0 0 1-.88-1.341 2.055 2.055 0 0 1 .833-2.785Z" fill="#5333ED"/><path fill-rule="evenodd" clip-rule="evenodd" d="M18.45 31.436c.9-.692 2.19-.525 2.884.374.183.238.387.46.608.663a2.055 2.055 0 1 1-2.78 3.028 9.36 9.36 0 0 1-1.084-1.182 2.055 2.055 0 0 1 .373-2.883Z" fill="#5333ED"/><g style="mix-blend-mode:multiply" fill-rule="evenodd" clip-rule="evenodd" fill="#2CD4D9"><path d="M28.791 21.825a2.056 2.056 0 0 1 2.904-.124c.395.362.758.758 1.085 1.182a2.055 2.055 0 1 1-3.256 2.51 5.264 5.264 0 0 0-.609-.664 2.055 2.055 0 0 1-.124-2.904Z"/><path d="M30.891 23.39a2.056 2.056 0 0 1 2.78.852 9.316 9.316 0 0 1-14.479 11.27 2.055 2.055 0 1 1 2.758-3.047 5.204 5.204 0 0 0 8.088-6.297 2.055 2.055 0 0 1 .853-2.778Z"/><path d="M29.897 22.543a2.056 2.056 0 0 1 2.887.345c.331.42.626.87.88 1.341a2.055 2.055 0 1 1-3.618 1.952 5.24 5.24 0 0 0-.494-.752 2.055 2.055 0 0 1 .345-2.886ZM18.45 31.436c.9-.693 2.19-.526 2.884.373.183.238.387.46.608.663a2.055 2.055 0 1 1-2.78 3.029 9.36 9.36 0 0 1-1.085-1.182c-.693-.9-.526-2.19.374-2.883Z"/></g><path fill-rule="evenodd" clip-rule="evenodd" d="M25.538 28.057c.68 0 1.23.55 1.23 1.23v1.759a1.23 1.23 0 0 1-2.46 0v-1.758c0-.68.55-1.231 1.23-1.231Z" fill="#5333ED"/><path d="M26.711 26.357a1.172 1.172 0 1 1-2.344 0 1.172 1.172 0 0 1 2.344 0Z" fill="#5333ED"/></svg>
